<?xml version="1.0" encoding="UTF-8" standalone="no" ?>
<COLLADA version="1.4.1" xmlns="http://www.collada.org/2005/11/COLLADASchema">

  <asset>
    <contributor>
      <authoring_tool>ONSHAPE BY PTC INC, 1.211</authoring_tool>
    </contributor>
    <created>2026-02-23T05:12:59</created>
    <modified>2026-02-23T05:12:59</modified>
    <unit meter="1" name="meters"/>
    <up_axis>Z_UP</up_axis>
  </asset>

  <library_materials>
    <material id="ID10" name="ID10">
      <instance_effect url="#ID10-fx"/>
    </material>
  </library_materials>

  <library_effects>
    <effect id="ID10-fx" name="ID10">
      <profile_COMMON>
        <technique sid="COMMON">
          <lambert>
            <diffuse>
              <color sid="diffuse">0.2 0.22 0.25 1</color>
            </diffuse>
            <transparent opaque="A_ONE">
              <color sid="transparent">1 1 1 1</color>
            </transparent>
            <transparency>
              <float sid="transparency">1</float>
            </transparency>
          </lambert>
        </technique>
        <extra>
          <technique profile="OTHER">
            <double_sided>1</double_sided>
          </technique>
        </extra>
      </profile_COMMON>
    </effect>
  </library_effects>

  <library_geometries>
    <geometry id="ID4">
      <mesh>
        <source id="ID5">
          <float_array count="876" id="ID6">0.0234 -0.00498 0 0.01935 -0.00498 0.0036 0.0234 -0.00498 0.0036 0.01935 -0.00498 0 0.01935 -0.00498 0.0036 0.01935 -0.01218 0 0.01935 -0.01218 0.0036 0.01935 -0.00498 0 0.0234 -0.01218 0 0.0234 -0.01218 0.0036 0.01935 -0.01218 0.0036 0.01935 -0.01218 0 0.0222214 -0.00899642 0 0.022168 -0.00879125 0.0036 0.0222214 -0.00899642 0.0036 0.02215 -0.00858 0.0036 0.022168 -0.00879125 0 0.02215 -0.00858 0 0.0224275 -0.00936528 0.0036 0.0225742 -0.00951834 0.0036 0.0225742 -0.00951834 0 0.0224275 -0.00936528 0 0.0223087 -0.00918962 0 0.0223087 -0.00918962 0.0036 0.0231366 -0.00980194 0 0.0229339 -0.00973986 0.0036 0.0231366 -0.00980194 0.0036 0.0229339 -0.00973986 0 0.0227446 -0.00964441 0 0.0227446 -0.00964441 0.0036 0.023766 -0.00977521 0.0036 0.023766 -0.00977521 0 0.0235588 -0.00981988 0.0036 0.0233469 -0.00982887 0.0036 0.0235588 -0.00981988 0 0.0233469 -0.00982887 0 0.0241433 -0.009585 0.0036 0.0243024 -0.00944492 0.0036 0.0243024 -0.00944492 0 0.0239628 -0.00969616 0 0.0239628 -0.00969616 0.0036 0.0241433 -0.009585 0 0.0246097 -0.00889497 0 0.024539 -0.00909488 0.0036 0.0246097 -0.00889497 0.0036 0.024539 -0.00909488 0 0.0244356 -0.00927997 0 0.0244356 -0.00927997 0.0036 0.0246097 -0.00826503 0.0036 0.0246097 -0.00826503 0 0.0246455 -0.00847399 0.0036 0.0246455 -0.00868601 0.0036 0.0246455 -0.00847399 0 0.0246455 -0.00868601 0 0.0244356 -0.00788003 0.0036 0.0243024 -0.00771508 0.0036 0.0243024 -0.00771508 0 0.024539 -0.00806512 0 0.024539 -0.00806512 0.0036 0.0244356 -0.00788003 0 0.023766 -0.00738479 0 0.0239628 -0.00746384 0.0036 0.023766 -0.00738479 0.0036 0.0239628 -0.00746384 0 0.0241433 -0.007575 0 0.0241433 -0.007575 0.0036 0.0231366 -0.00735806 0 0.0233469 -0.00733113 0 0.0233469 -0.00733113 0.0036 0.0235588 -0.00734012 0.0036 0.0235588 -0.00734012 0 0.0231366 -0.00735806 0.0036 0.0229339 -0.00742014 0 0.0229339 -0.00742014 0.0036 0.0227446 -0.00751559 0 0.0225742 -0.00764166 0 0.0227446 -0.00751559 0.0036 0.0225742 -0.00764166 0.0036 0.0224275 -0.00779472 0 0.0224275 -0.00779472 0.0036 0.0223087 -0.00797038 0 0.0222214 -0.00816358 0 0.0223087 -0.00797038 0.0036 0.0222214 -0.00816358 0.0036 0.022168 -0.00836875 0 0.022168 -0.00836875 0.0036 0.0269953 -0.00839716 0 0.0269953 -0.00839716 0.0036 0.0269953 -0.00876157 0.0036 0.0269583 -0.00803384 0 0.0269583 -0.00803384 0.0036 0.026885 -0.0076775 0.0036 0.026885 -0.0076775 0 0.0267756 -0.00732893 0 0.0267756 -0.00732893 0.0036 0.0266316 -0.00699381 0 0.0266316 -0.00699381 0.0036 0.0264549 -0.00667544 0.0036 0.0264549 -0.00667544 0 0.0262461 -0.00637565 0 0.0262461 -0.00637565 0.0036 0.0260089 -0.00609943 0 0.0260089 -0.00609943 0.0036 0.0257444 -0.00584802 0.0036 0.0257444 -0.00584802 0 0.0254557 -0.00562475 0 0.0254557 -0.00562475 0.0036 0.0251469 -0.00543227 0 0.0251469 -0.00543227 0.0036 0.0248188 -0.00527142 0.0036 0.0248188 -0.00527142 0 0.024477 -0.00514496 0 0.024477 -0.00514496 0.0036 0.0241241 -0.00505359 0 0.0241241 -0.00505359 0.0036 0.0237651 -0.0049986 0.0036 0.0237651 -0.0049986 0 0.0234 -0.00498 0 0.0234 -0.00498 0.0036 0.0269953 -0.00876157 0 0.0269586 -0.00912421 0.0036 0.0269586 -0.00912421 0 0.0268851 -0.00948226 0.0036 0.0268851 -0.00948226 0 0.0267762 -0.00982932 0 0.0267762 -0.00982932 0.0036 0.0266324 -0.0101648 0.0036 0.0266324 -0.0101648 0 0.0264554 -0.0104838 0.0036 0.0264554 -0.0104838 0 0.0262474 -0.0107828 0 0.0262474 -0.0107828 0.0036 0.0260094 -0.0110601 0.0036 0.0260094 -0.0110601 0 0.0257456 -0.0113108 0.0036 0.0257456 -0.0113108 0 0.0254572 -0.0115343 0 0.0254572 -0.0115343 0.0036 0.0251473 -0.0117275 0.0036 0.0251473 -0.0117275 0 0.0248206 -0.0118878 0.0036 0.0248206 -0.0118878 0 0.0244781 -0.0120148 0 0.0244781 -0.0120148 0.0036 0.0241255 -0.0121061 0.0036 0.0241255 -0.0121061 0 0.0237651 -0.0121614 0.0036 0.0237651 -0.0121614 0 0.0234 -0.01218 0.0036 0.0234 -0.01218 0 0.0254557 -0.00562475 0.0036 0.0241433 -0.007575 0.0036 0.0257444 -0.00584802 0.0036 0.0237651 -0.0049986 0.0036 0.0234 -0.00498 0.0036 0.0233469 -0.00733113 0.0036 0.0243024 -0.00771508 0.0036 0.0262461 -0.00637565 0.0036 0.0260089 -0.00609943 0.0036 0.0264549 -0.00667544 0.0036 0.0244356 -0.00788003 0.0036 0.0266316 -0.00699381 0.0036 0.0267756 -0.00732893 0.0036 0.024539 -0.00806512 0.0036 0.026885 -0.0076775 0.0036 0.0246097 -0.00826503 0.0036 0.0269583 -0.00803384 0.0036 0.0269953 -0.00839716 0.0036 0.0246455 -0.00847399 0.0036 0.0246455 -0.00868601 0.0036 0.0246097 -0.00889497 0.0036 0.0269586 -0.00912421 0.0036 0.0269953 -0.00876157 0.0036 0.0262474 -0.0107828 0.0036 0.0264554 -0.0104838 0.0036 0.0244356 -0.00927997 0.0036 0.024539 -0.00909488 0.0036 0.0268851 -0.00948226 0.0036 0.0239628 -0.00969616 0.0036 0.023766 -0.00977521 0.0036 0.0248206 -0.0118878 0.0036 0.0260094 -0.0110601 0.0036 0.0241433 -0.009585 0.0036 0.0257456 -0.0113108 0.0036 0.01935 -0.01218 0.0036 0.0234 -0.01218 0.0036 0.0227446 -0.00964441 0.0036 0.0237651 -0.0121614 0.0036 0.0235588 -0.00981988 0.0036 0.0224275 -0.00936528 0.0036 0.0223087 -0.00918962 0.0036 0.0225742 -0.00951834 0.0036 0.0233469 -0.00982887 0.0036 0.0231366 -0.00980194 0.0036 0.0229339 -0.00973986 0.0036 0.0244781 -0.0120148 0.0036 0.0241255 -0.0121061 0.0036 0.0251473 -0.0117275 0.0036 0.0243024 -0.00944492 0.0036 0.0254572 -0.0115343 0.0036 0.0266324 -0.0101648 0.0036 0.0267762 -0.00982932 0.0036 0.02215 -0.00858 0.0036 0.01935 -0.00498 0.0036 0.0239628 -0.00746384 0.0036 0.0251469 -0.00543227 0.0036 0.0248188 -0.00527142 0.0036 0.023766 -0.00738479 0.0036 0.0222214 -0.00899642 0.0036 0.022168 -0.00879125 0.0036 0.024477 -0.00514496 0.0036 0.0241241 -0.00505359 0.0036 0.0235588 -0.00734012 0.0036 0.0231366 -0.00735806 0.0036 0.0227446 -0.00751559 0.0036 0.0229339 -0.00742014 0.0036 0.0225742 -0.00764166 0.0036 0.0223087 -0.00797038 0.0036 0.0224275 -0.00779472 0.0036 0.022168 -0.00836875 0.0036 0.0222214 -0.00816358 0.0036 0.0254557 -0.00562475 0 0.0257444 -0.00584802 0 0.0241433 -0.007575 0 0.0260089 -0.00609943 0 0.0244356 -0.00788003 0 0.0243024 -0.00771508 0 0.0262461 -0.00637565 0 0.0267756 -0.00732893 0 0.024539 -0.00806512 0 0.0266316 -0.00699381 0 0.0264549 -0.00667544 0 0.0246097 -0.00826503 0 0.0269583 -0.00803384 0 0.0246455 -0.00847399 0 0.026885 -0.0076775 0 0.0269953 -0.00876157 0 0.0269586 -0.00912421 0 0.0246455 -0.00868601 0 0.0269953 -0.00839716 0 0.024539 -0.00909488 0 0.0246097 -0.00889497 0 0.0268851 -0.00948226 0 0.0260094 -0.0110601 0 0.0257456 -0.0113108 0 0.0241433 -0.009585 0 0.0264554 -0.0104838 0 0.0262474 -0.0107828 0 0.0244356 -0.00927997 0 0.0237651 -0.0121614 0 0.0234 -0.01218 0 0.0235588 -0.00981988 0 0.023766 -0.00977521 0 0.0239628 -0.00969616 0 0.0248206 -0.0118878 0 0.0225742 -0.00951834 0 0.0227446 -0.00964441 0 0.01935 -0.01218 0 0.0231366 -0.00980194 0 0.0229339 -0.00973986 0 0.0223087 -0.00918962 0 0.0224275 -0.00936528 0 0.0241255 -0.0121061 0 0.0233469 -0.00982887 0 0.0251473 -0.0117275 0 0.0244781 -0.0120148 0 0.0254572 -0.0115343 0 0.0243024 -0.00944492 0 0.0267762 -0.00982932 0 0.0266324 -0.0101648 0 0.0239628 -0.00746384 0 0.023766 -0.00738479 0 0.0248188 -0.00527142 0 0.0237651 -0.0049986 0 0.0233469 -0.00733113 0 0.0234 -0.00498 0 0.01935 -0.00498 0 0.02215 -0.00858 0 0.0251469 -0.00543227 0 0.0222214 -0.00899642 0 0.022168 -0.00879125 0 0.0241241 -0.00505359 0 0.024477 -0.00514496 0 0.0235588 -0.00734012 0 0.0231366 -0.00735806 0 0.0229339 -0.00742014 0 0.0227446 -0.00751559 0 0.0225742 -0.00764166 0 0.0223087 -0.00797038 0 0.0224275 -0.00779472 0 0.022168 -0.00836875 0 0.0222214 -0.00816358 0</float_array>
          <technique_common>
            <accessor count="292" source="#ID6" stride="3">
              <param name="X" type="float"/>
              <param name="Y" type="float"/>
              <param name="Z" type="float"/>
            </accessor>
          </technique_common>
        </source>
        <source id="ID7">
          <float_array count="876" id="ID8">0 1 0 0 1 0 0 1 0 0 1 0 -1 -0 -0 -1 -0 -0 -1 -0 -0 -1 -0 -0 -0 -1 -0 -0 -1 -0 -0 -1 -0 -0 -1 -0 0.942877 0.33314 0 0.985616 0.169001 0 0.942877 0.33314 0 1 -1.74846e-07 0 0.985616 0.169001 0 1 3.01992e-07 0 0.778036 0.62822 0 0.660675 0.750672 0 0.660675 0.750672 0 0.778036 0.62822 0 0.873014 0.487695 0 0.873014 0.487695 0 0.210679 0.977555 0 0.372856 0.927889 0 0.210679 0.977555 0 0.372857 0.927889 0 0.524307 0.851529 0 0.524307 0.851529 0 -0.292823 0.956167 0 -0.292823 0.956167 0 -0.127018 0.9919 0 0.0424415 0.999099 0 -0.127018 0.9919 0 0.042441 0.999099 0 -0.594633 0.803997 0 -0.721956 0.691939 0 -0.721956 0.691939 0 -0.450204 0.892926 0 -0.450204 0.892926 0 -0.594633 0.803997 0 -0.967733 0.251978 0 -0.911228 0.411901 0 -0.967733 0.251978 0 -0.911228 0.411901 0 -0.82851 0.559975 0 -0.82851 0.559975 0 -0.967733 -0.251978 -0 -0.967733 -0.251978 -0 -0.996397 -0.0848059 -0 -0.996397 0.0848059 0 -0.996397 -0.0848059 -0 -0.996397 0.0848059 0 -0.82851 -0.559975 -0 -0.721956 -0.691939 -0 -0.721956 -0.691939 -0 -0.911228 -0.411901 -0 -0.911229 -0.411901 -0 -0.82851 -0.559975 -0 -0.292823 -0.956167 -0 -0.450204 -0.892926 -0 -0.292823 -0.956167 -0 -0.450204 -0.892926 -0 -0.594633 -0.803997 -0 -0.594633 -0.803997 -0 0.210679 -0.977555 0 0.0424412 -0.999099 0 0.0424412 -0.999099 0 -0.127018 -0.9919 -0 -0.127018 -0.9919 -0 0.210679 -0.977555 0 0.372857 -0.927889 0 0.372856 -0.927889 0 0.524307 -0.851529 0 0.660675 -0.750672 0 0.524307 -0.851529 0 0.660675 -0.750672 0 0.778036 -0.62822 0 0.778036 -0.62822 0 0.873014 -0.487695 0 0.942877 -0.33314 0 0.873014 -0.487695 0 0.942877 -0.33314 0 0.985616 -0.169001 0 0.985616 -0.169001 0 0.998717 0.0506491 0 0.998716 0.0506493 0 0.998717 -0.050649 0 0.988468 0.151428 0 0.988468 0.151428 0 0.968077 0.250653 0 0.968077 0.250653 0 0.937752 0.347305 0 0.937752 0.347305 0 0.897804 0.440394 0 0.897804 0.440394 0 0.848644 0.528964 0 0.848644 0.528964 0 0.790776 0.612106 0 0.790776 0.612106 0 0.724793 0.688967 0 0.724793 0.688967 0 0.651372 0.758758 0 0.651373 0.758758 0 0.571268 0.820763 0 0.571268 0.820763 0 0.485302 0.874347 0 0.485302 0.874347 0 0.394356 0.918958 0 0.394356 0.918958 0 0.299363 0.954139 0 0.299363 0.954139 0 0.201298 0.97953 0 0.201298 0.97953 0 0.101168 0.994869 0 0.101168 0.994869 0 4.37114e-08 1 0 4.37114e-08 1 0 0.998717 -0.050649 0 0.988468 -0.151428 0 0.988468 -0.151428 0 0.968077 -0.250652 0 0.968077 -0.250652 0 0.937752 -0.347305 0 0.937752 -0.347305 0 0.897805 -0.440394 0 0.897805 -0.440394 0 0.848644 -0.528964 0 0.848644 -0.528964 0 0.790776 -0.612106 0 0.790776 -0.612106 0 0.724793 -0.688967 0 0.724793 -0.688967 0 0.651373 -0.758758 0 0.651373 -0.758758 0 0.571268 -0.820763 0 0.571268 -0.820763 0 0.485302 -0.874347 0 0.485302 -0.874347 0 0.394356 -0.918958 0 0.394356 -0.918958 0 0.299363 -0.954139 0 0.299363 -0.954139 0 0.201299 -0.97953 0 0.201299 -0.97953 0 0.101168 -0.994869 0 0.101168 -0.994869 0 -1.19249e-08 -1 0 -1.19249e-08 -1 0 0 0 1 0 0 1 0 0 1 0 0 1 0 0 1 0 0 1 0 0 1 0 0 1 0 0 1 0 0 1 0 0 1 0 0 1 0 0 1 0 0 1 0 0 1 0 0 1 0 0 1 0 0 1 0 0 1 0 0 1 0 0 1 0 0 1 0 0 1 0 0 1 0 0 1 0 0 1 0 0 1 0 0 1 0 0 1 0 0 1 0 0 1 0 0 1 0 0 1 0 0 1 0 0 1 0 0 1 0 0 1 0 0 1 0 0 1 0 0 1 0 0 1 0 0 1 0 0 1 0 0 1 0 0 1 0 0 1 0 0 1 0 0 1 0 0 1 0 0 1 0 0 1 0 0 1 0 0 1 0 0 1 0 0 1 0 0 1 0 0 1 0 0 1 0 0 1 0 0 1 0 0 1 0 0 1 0 0 1 0 0 1 0 0 1 0 0 1 0 0 1 0 0 1 0 0 1 0 0 1 0 0 1 0 0 -1 0 0 -1 0 0 -1 0 0 -1 0 0 -1 0 0 -1 0 0 -1 0 0 -1 0 0 -1 0 0 -1 0 0 -1 0 0 -1 0 0 -1 0 0 -1 0 0 -1 0 0 -1 0 0 -1 0 0 -1 0 0 -1 0 0 -1 0 0 -1 0 0 -1 0 0 -1 0 0 -1 0 0 -1 0 0 -1 0 0 -1 0 0 -1 0 0 -1 0 0 -1 0 0 -1 0 0 -1 0 0 -1 0 0 -1 0 0 -1 0 0 -1 0 0 -1 0 0 -1 0 0 -1 0 0 -1 0 0 -1 0 0 -1 0 0 -1 0 0 -1 0 0 -1 0 0 -1 0 0 -1 0 0 -1 0 0 -1 0 0 -1 0 0 -1 0 0 -1 0 0 -1 0 0 -1 0 0 -1 0 0 -1 0 0 -1 0 0 -1 0 0 -1 0 0 -1 0 0 -1 0 0 -1 0 0 -1 0 0 -1 0 0 -1 0 0 -1 0 0 -1 0 0 -1 0 0 -1 0 0 -1 0 0 -1</float_array>
          <technique_common>
            <accessor count="292" source="#ID8" stride="3">
              <param name="X" type="float"/>
              <param name="Y" type="float"/>
              <param name="Z" type="float"/>
            </accessor>
          </technique_common>
        </source>
        <vertices id="ID9">
          <input semantic="POSITION" source="#ID5"/>
          <input semantic="NORMAL" source="#ID7"/>
        </vertices>
        <triangles count="284" material="ID10">
          <input offset="0" semantic="VERTEX" source="#ID9"/>
          <p>0 1 2 1 0 3 4 5 6 4 7 5 8 9 10 10 11 8 12 13 14 15 16 17 18 19 20 21 22 23 24 25 26 27 28 29 30 31 32 33 34 35 36 37 38 39 40 41 42 43 44 45 46 47 48 49 50 51 52 53 54 55 56 57 58 59 60 61 62 63 64 65 66 67 68 69 67 70 66 71 72 71 66 68 73 74 72 72 71 73 75 74 76 73 76 74 75 77 78 77 75 76 79 80 78 78 77 79 81 80 82 79 82 80 81 83 84 83 81 82 85 17 84 84 83 85 69 70 62 85 15 17 67 69 68 63 61 60 60 62 70 55 65 64 65 61 63 54 56 59 55 64 56 58 57 48 54 59 58 49 52 50 57 49 48 53 44 51 52 51 50 45 43 42 42 44 53 37 47 46 47 43 45 36 38 41 37 46 38 40 39 30 36 41 40 31 34 32 39 31 30 35 26 33 34 33 32 27 25 24 24 26 35 19 29 28 29 25 27 18 20 21 19 28 20 23 22 14 18 21 23 12 16 13 22 12 14 15 13 16 86 87 88 87 89 90 89 87 86 91 90 92 89 92 90 93 94 91 91 92 93 94 95 96 95 94 93 97 96 98 95 98 96 99 100 97 97 98 99 100 101 102 101 100 99 103 102 104 101 104 102 105 106 103 103 104 105 106 107 108 107 106 105 109 108 110 107 110 108 111 112 109 109 110 111 112 113 114 113 112 111 115 114 116 113 116 114 117 118 115 115 116 117 86 88 119 120 121 119 119 88 120 121 122 123 122 121 120 124 123 125 122 125 123 126 127 124 124 125 126 127 128 129 128 127 126 130 129 131 128 131 129 132 133 130 130 131 132 133 134 135 134 133 132 136 135 137 134 137 135 138 139 136 136 137 138 139 140 141 140 139 138 142 141 143 140 143 141 144 145 142 142 143 144 145 146 147 146 145 144 146 148 147 147 148 149 150 151 152 153 154 155 156 157 158 158 152 151 159 160 161 160 157 156 162 161 163 164 165 166 165 162 163 167 168 169 165 168 166 170 171 169 172 169 171 173 174 175 176 177 170 178 179 180 181 182 183 184 185 186 187 188 185 189 190 184 191 184 186 192 193 185 193 194 185 195 179 196 196 179 188 180 197 178 198 182 181 182 178 199 176 175 200 173 175 198 176 201 177 202 203 184 204 150 205 204 206 207 208 209 184 184 209 202 184 190 208 189 184 191 194 186 185 192 185 188 187 196 188 195 180 179 197 199 178 199 183 182 181 173 198 174 200 175 200 201 176 177 171 170 172 167 169 167 166 168 164 162 165 163 161 160 159 157 160 156 158 151 151 150 204 205 206 204 207 210 211 206 210 207 211 153 212 212 207 211 155 154 213 212 153 155 154 214 215 213 154 215 216 214 203 154 203 214 217 218 203 203 218 216 219 220 203 203 220 217 202 219 203 221 222 223 223 222 224 225 226 227 227 226 224 228 229 230 225 231 230 228 232 229 232 233 234 232 235 233 236 237 238 234 239 238 240 241 242 237 241 238 243 244 245 246 247 248 249 250 251 252 253 254 255 256 257 250 257 256 258 250 259 260 261 257 262 251 252 258 263 250 253 264 254 252 265 262 266 253 245 247 267 248 245 267 243 240 242 268 248 240 269 270 271 272 273 274 275 276 277 257 270 278 221 279 257 280 257 277 280 257 279 260 261 255 257 259 250 256 263 251 250 249 251 262 265 252 254 264 253 266 266 245 244 243 267 247 246 248 269 269 240 268 242 241 237 236 238 239 239 234 233 235 232 228 229 225 230 231 225 227 226 223 224 223 270 221 278 270 272 271 281 282 272 271 282 281 283 273 283 281 271 274 284 275 283 274 273 275 285 286 284 285 275 287 276 286 275 286 276 288 276 289 276 287 289 290 276 291 276 288 291 277 276 290</p>
        </triangles>
      </mesh>
    </geometry>
    <geometry id="ID12">
      <mesh>
        <source id="ID13">
          <float_array count="732" id="ID14">-0.000297286 0.0269277 0 -0.000297286 0.0269277 0.0036 0.000297286 0.0269277 0.0036 -0.000883748 0.0268298 0 -0.000883748 0.0268298 0.0036 -0.0014461 0.0266368 0.0036 -0.0014461 0.0266368 0 -0.00196901 0.0263538 0 -0.00196901 0.0263538 0.0036 -0.00243821 0.0259886 0 -0.00243821 0.0259886 0.0036 -0.00284091 0.0255512 0.0036 -0.00284091 0.0255512 0 -0.00316611 0.0250534 0 -0.00316611 0.0250534 0.0036 -0.00340494 0.0245089 0 -0.00340494 0.0245089 0.0036 -0.0035509 0.0239325 0.0036 -0.0035509 0.0239325 0 -0.0036 0.02334 0 -0.0036 0.02334 0.0036 0.000297286 0.0269277 0 0.000883748 0.0268298 0.0036 0.000883748 0.0268298 0 0.0014461 0.0266368 0.0036 0.0014461 0.0266368 0 0.00196901 0.0263538 0 0.00196901 0.0263538 0.0036 0.00243821 0.0259886 0.0036 0.00243821 0.0259886 0 0.00284091 0.0255512 0.0036 0.00284091 0.0255512 0 0.00316611 0.0250534 0 0.00316611 0.0250534 0.0036 0.00340494 0.0245089 0.0036 0.00340494 0.0245089 0 0.0035509 0.0239325 0.0036 0.0035509 0.0239325 0 0.0036 0.02334 0.0036 0.0036 0.02334 0 -0.0036 0.02334 0.0036 -0.0036 0.01935 0 -0.0036 0.01935 0.0036 -0.0036 0.02334 0 0.0036 0.01935 0 0.0036 0.01935 0.0036 -0.0036 0.01935 0.0036 -0.0036 0.01935 0 -0.0011786 0.0229236 0 -0.00123202 0.0231287 0.0036 -0.0011786 0.0229236 0.0036 -0.00125 0.02334 0.0036 -0.00123202 0.0231287 0 -0.00125 0.02334 0 -0.000972545 0.0225547 0.0036 -0.000825843 0.0224017 0.0036 -0.000825843 0.0224017 0 -0.000972545 0.0225547 0 -0.00109127 0.0227304 0 -0.00109127 0.0227304 0.0036 -0.000263349 0.0221181 0 -0.000466071 0.0221801 0.0036 -0.000263349 0.0221181 0.0036 -0.000466071 0.0221801 0 -0.000655384 0.0222756 0 -0.000655384 0.0222756 0.0036 0.000366028 0.0221448 0.0036 0.000366028 0.0221448 0 0.000158772 0.0221001 0.0036 -5.30515e-05 0.0220911 0.0036 0.000158772 0.0221001 0 -5.30515e-05 0.0220911 0 0.000743292 0.022335 0.0036 0.000902445 0.0224751 0.0036 0.000902445 0.0224751 0 0.000562755 0.0222238 0 0.000562755 0.0222238 0.0036 0.000743292 0.022335 0 0.00120967 0.023025 0 0.00113904 0.0228251 0.0036 0.00120967 0.023025 0.0036 0.00113904 0.0228251 0 0.00103564 0.02264 0 0.00103564 0.02264 0.0036 0.00120967 0.023655 0.0036 0.00120967 0.023655 0 0.0012455 0.023446 0.0036 0.0012455 0.023234 0.0036 0.0012455 0.023446 0 0.0012455 0.023234 0 0.00103564 0.02404 0.0036 0.000902445 0.0242049 0.0036 0.000902445 0.0242049 0 0.00113904 0.0238549 0 0.00113904 0.0238549 0.0036 0.00103564 0.02404 0 0.000366028 0.0245352 0 0.000562755 0.0244562 0.0036 0.000366028 0.0245352 0.0036 0.000562755 0.0244562 0 0.000743292 0.024345 0 0.000743292 0.024345 0.0036 -0.000263349 0.0245619 0 -5.30515e-05 0.0245889 0 -5.30515e-05 0.0245889 0.0036 0.000158772 0.0245799 0.0036 0.000158772 0.0245799 0 -0.000263349 0.0245619 0.0036 -0.000466071 0.0244999 0 -0.000466071 0.0244999 0.0036 -0.000655384 0.0244044 0 -0.000825843 0.0242783 0 -0.000655384 0.0244044 0.0036 -0.000825843 0.0242783 0.0036 -0.000972545 0.0241253 0 -0.000972545 0.0241253 0.0036 -0.00109127 0.0239496 0 -0.0011786 0.0237564 0 -0.00109127 0.0239496 0.0036 -0.0011786 0.0237564 0.0036 -0.00123202 0.0235512 0 -0.00123202 0.0235512 0.0036 0.0036 0.01935 0.0036 0.0036 0.02334 0 0.0036 0.02334 0.0036 0.0036 0.01935 0 -0.0011786 0.0229236 0.0036 -0.00123202 0.0231287 0.0036 -0.0036 0.02334 0.0036 -0.00125 0.02334 0.0036 -0.0011786 0.0237564 0.0036 -0.00340494 0.0245089 0.0036 -0.00123202 0.0235512 0.0036 -0.000972545 0.0241253 0.0036 -0.000825843 0.0242783 0.0036 -0.00243821 0.0259886 0.0036 -0.00316611 0.0250534 0.0036 -0.00109127 0.0239496 0.0036 -0.00284091 0.0255512 0.0036 -0.0014461 0.0266368 0.0036 -0.000466071 0.0244999 0.0036 -0.000883748 0.0268298 0.0036 -0.00196901 0.0263538 0.0036 -0.000655384 0.0244044 0.0036 0.000883748 0.0268298 0.0036 0.000297286 0.0269277 0.0036 0.000158772 0.0245799 0.0036 -5.30515e-05 0.0245889 0.0036 -0.000297286 0.0269277 0.0036 -0.000263349 0.0245619 0.0036 0.000743292 0.024345 0.0036 0.00243821 0.0259886 0.0036 0.00196901 0.0263538 0.0036 0.000366028 0.0245352 0.0036 0.000562755 0.0244562 0.0036 0.0014461 0.0266368 0.0036 -0.0035509 0.0239325 0.0036 0.00284091 0.0255512 0.0036 0.000902445 0.0242049 0.0036 0.0035509 0.0239325 0.0036 0.00340494 0.0245089 0.0036 0.00120967 0.023655 0.0036 0.00316611 0.0250534 0.0036 0.00113904 0.0238549 0.0036 0.0012455 0.023234 0.0036 0.00120967 0.023025 0.0036 0.0036 0.02334 0.0036 0.0012455 0.023446 0.0036 0.00103564 0.02264 0.0036 0.000902445 0.0224751 0.0036 0.0036 0.01935 0.0036 0.00113904 0.0228251 0.0036 0.000562755 0.0222238 0.0036 0.000743292 0.022335 0.0036 -0.000466071 0.0221801 0.0036 -0.0036 0.01935 0.0036 -0.000263349 0.0221181 0.0036 0.00103564 0.02404 0.0036 -0.000972545 0.0225547 0.0036 -0.00109127 0.0227304 0.0036 -0.000825843 0.0224017 0.0036 -0.000655384 0.0222756 0.0036 -5.30515e-05 0.0220911 0.0036 0.000366028 0.0221448 0.0036 0.000158772 0.0221001 0.0036 0.0035509 0.0239325 0 0.00120967 0.023655 0 0.00340494 0.0245089 0 -0.00109127 0.0239496 0 -0.00316611 0.0250534 0 -0.00284091 0.0255512 0 -0.0011786 0.0237564 0 -0.00123202 0.0235512 0 -0.00340494 0.0245089 0 -0.00196901 0.0263538 0 -0.0014461 0.0266368 0 -0.000655384 0.0244044 0 -0.00243821 0.0259886 0 -0.000825843 0.0242783 0 -0.000972545 0.0241253 0 -0.000297286 0.0269277 0 -5.30515e-05 0.0245889 0 -0.000263349 0.0245619 0 -0.000883748 0.0268298 0 -0.000466071 0.0244999 0 0.000562755 0.0244562 0 0.000366028 0.0245352 0 0.0014461 0.0266368 0 0.000158772 0.0245799 0 0.000297286 0.0269277 0 0.000883748 0.0268298 0 0.00243821 0.0259886 0 0.00284091 0.0255512 0 0.000902445 0.0242049 0 0.00196901 0.0263538 0 0.000743292 0.024345 0 0.0036 0.01935 0 0.000562755 0.0222238 0 0.000743292 0.022335 0 0.00103564 0.02264 0 0.00113904 0.0228251 0 0.0036 0.02334 0 0.000902445 0.0224751 0 0.0012455 0.023446 0 0.00120967 0.023025 0 0.0012455 0.023234 0 0.00316611 0.0250534 0 0.00103564 0.02404 0 0.00113904 0.0238549 0 -0.000466071 0.0221801 0 -0.000263349 0.0221181 0 -0.0036 0.01935 0 -0.0035509 0.0239325 0 -0.00125 0.02334 0 -0.0036 0.02334 0 -0.00123202 0.0231287 0 -0.0011786 0.0229236 0 -0.00109127 0.0227304 0 -0.000972545 0.0225547 0 -0.000655384 0.0222756 0 -0.000825843 0.0224017 0 -5.30515e-05 0.0220911 0 0.000366028 0.0221448 0 0.000158772 0.0221001 0</float_array>
          <technique_common>
            <accessor count="244" source="#ID14" stride="3">
              <param name="X" type="float"/>
              <param name="Y" type="float"/>
              <param name="Z" type="float"/>
            </accessor>
          </technique_common>
        </source>
        <source id="ID15">
          <float_array count="732" id="ID16">-0.0825793 0.996584 0 -0.0825793 0.996584 0 0.0825795 0.996584 0 -0.245486 0.9694 0 -0.245486 0.9694 0 -0.401695 0.915773 0 -0.401695 0.915773 0 -0.546948 0.837166 0 -0.546948 0.837166 0 -0.677282 0.735724 0 -0.677282 0.735724 0 -0.789141 0.614213 0 -0.789141 0.614213 0 -0.879474 0.475947 0 -0.879474 0.475947 0 -0.945817 0.3247 0 -0.945817 0.3247 0 -0.986361 0.164595 0 -0.986361 0.164595 0 -1 4.37114e-08 0 -1 4.37114e-08 0 0.0825795 0.996584 0 0.245486 0.9694 0 0.245486 0.9694 0 0.401695 0.915773 0 0.401695 0.915773 0 0.546948 0.837166 0 0.546948 0.837166 0 0.677281 0.735724 0 0.677281 0.735724 0 0.789141 0.614213 0 0.789141 0.614213 0 0.879474 0.475947 0 0.879474 0.475947 0 0.945817 0.3247 0 0.945817 0.3247 0 0.986361 0.164595 0 0.986361 0.164595 0 1 -1.19249e-08 0 1 -1.19249e-08 0 -1 -1.08692e-16 0 -1 -1.08692e-16 0 -1 -1.08692e-16 0 -1 -1.08692e-16 0 -0 -1 -0 -0 -1 -0 -0 -1 -0 -0 -1 -0 0.942877 0.33314 0 0.985616 0.169001 0 0.942877 0.33314 0 1 -1.74846e-07 0 0.985616 0.169001 0 1 3.01992e-07 0 0.778036 0.62822 0 0.660675 0.750672 0 0.660675 0.750672 0 0.778036 0.62822 0 0.873014 0.487695 0 0.873014 0.487695 0 0.210679 0.977555 0 0.372856 0.927889 0 0.210679 0.977555 0 0.372857 0.927889 0 0.524307 0.851529 0 0.524307 0.851529 0 -0.292823 0.956167 0 -0.292823 0.956167 0 -0.127018 0.9919 0 0.0424415 0.999099 0 -0.127018 0.9919 0 0.042441 0.999099 0 -0.594633 0.803997 0 -0.721956 0.691939 0 -0.721956 0.691939 0 -0.450204 0.892926 0 -0.450204 0.892926 0 -0.594633 0.803997 0 -0.967733 0.251978 0 -0.911228 0.411901 0 -0.967733 0.251978 0 -0.911228 0.411901 0 -0.82851 0.559975 0 -0.82851 0.559975 0 -0.967733 -0.251978 -0 -0.967733 -0.251978 -0 -0.996397 -0.0848059 -0 -0.996397 0.0848059 0 -0.996397 -0.0848059 -0 -0.996397 0.0848059 0 -0.82851 -0.559975 -0 -0.721956 -0.691939 -0 -0.721956 -0.691939 -0 -0.911228 -0.411901 -0 -0.911229 -0.411901 -0 -0.82851 -0.559975 -0 -0.292823 -0.956167 -0 -0.450204 -0.892926 -0 -0.292823 -0.956167 -0 -0.450204 -0.892926 -0 -0.594633 -0.803997 -0 -0.594633 -0.803997 -0 0.210679 -0.977555 0 0.0424412 -0.999099 0 0.0424412 -0.999099 0 -0.127018 -0.9919 -0 -0.127018 -0.9919 -0 0.210679 -0.977555 0 0.372857 -0.927889 0 0.372856 -0.927889 0 0.524307 -0.851529 0 0.660675 -0.750672 0 0.524307 -0.851529 0 0.660675 -0.750672 0 0.778036 -0.62822 0 0.778036 -0.62822 0 0.873014 -0.487695 0 0.942877 -0.33314 0 0.873014 -0.487695 0 0.942877 -0.33314 0 0.985616 -0.169001 0 0.985616 -0.169001 0 1 -1.08692e-16 0 1 -1.08692e-16 0 1 -1.08692e-16 0 1 -1.08692e-16 0 0 0 1 0 0 1 0 0 1 0 0 1 0 0 1 0 0 1 0 0 1 0 0 1 0 0 1 0 0 1 0 0 1 0 0 1 0 0 1 0 0 1 0 0 1 0 0 1 0 0 1 0 0 1 0 0 1 0 0 1 0 0 1 0 0 1 0 0 1 0 0 1 0 0 1 0 0 1 0 0 1 0 0 1 0 0 1 0 0 1 0 0 1 0 0 1 0 0 1 0 0 1 0 0 1 0 0 1 0 0 1 0 0 1 0 0 1 0 0 1 0 0 1 0 0 1 0 0 1 0 0 1 0 0 1 0 0 1 0 0 1 0 0 1 0 0 1 0 0 1 0 0 1 0 0 1 0 0 1 0 0 1 0 0 1 0 0 1 0 0 1 0 0 1 0 0 1 0 0 -1 0 0 -1 0 0 -1 0 0 -1 0 0 -1 0 0 -1 0 0 -1 0 0 -1 0 0 -1 0 0 -1 0 0 -1 0 0 -1 0 0 -1 0 0 -1 0 0 -1 0 0 -1 0 0 -1 0 0 -1 0 0 -1 0 0 -1 0 0 -1 0 0 -1 0 0 -1 0 0 -1 0 0 -1 0 0 -1 0 0 -1 0 0 -1 0 0 -1 0 0 -1 0 0 -1 0 0 -1 0 0 -1 0 0 -1 0 0 -1 0 0 -1 0 0 -1 0 0 -1 0 0 -1 0 0 -1 0 0 -1 0 0 -1 0 0 -1 0 0 -1 0 0 -1 0 0 -1 0 0 -1 0 0 -1 0 0 -1 0 0 -1 0 0 -1 0 0 -1 0 0 -1 0 0 -1 0 0 -1 0 0 -1 0 0 -1 0 0 -1 0 0 -1</float_array>
          <technique_common>
            <accessor count="244" source="#ID16" stride="3">
              <param name="X" type="float"/>
              <param name="Y" type="float"/>
              <param name="Z" type="float"/>
            </accessor>
          </technique_common>
        </source>
        <vertices id="ID17">
          <input semantic="POSITION" source="#ID13"/>
          <input semantic="NORMAL" source="#ID15"/>
        </vertices>
        <triangles count="236" material="ID10">
          <input offset="0" semantic="VERTEX" source="#ID17"/>
          <p>0 1 2 1 3 4 3 1 0 5 4 6 3 6 4 7 8 5 5 6 7 8 9 10 9 8 7 11 10 12 9 12 10 13 14 11 11 12 13 14 15 16 15 14 13 17 16 18 15 18 16 19 20 17 17 18 19 0 2 21 22 23 21 21 2 22 23 24 25 24 23 22 26 25 27 24 27 25 28 29 26 26 27 28 29 30 31 30 29 28 32 31 33 30 33 31 34 35 32 32 33 34 35 36 37 36 35 34 36 38 37 37 38 39 40 41 42 41 40 43 44 45 46 46 47 44 48 49 50 51 52 53 54 55 56 57 58 59 60 61 62 63 64 65 66 67 68 69 70 71 72 73 74 75 76 77 78 79 80 81 82 83 84 85 86 87 88 89 90 91 92 93 94 95 96 97 98 99 100 101 102 103 104 105 103 106 102 107 108 107 102 104 109 110 108 108 107 109 111 110 112 109 112 110 111 113 114 113 111 112 115 116 114 114 113 115 117 116 118 115 118 116 117 119 120 119 117 118 121 53 120 120 119 121 105 106 98 121 51 53 103 105 104 99 97 96 96 98 106 91 101 100 101 97 99 90 92 95 91 100 92 94 93 84 90 95 94 85 88 86 93 85 84 89 80 87 88 87 86 81 79 78 78 80 89 73 83 82 83 79 81 72 74 77 73 82 74 76 75 66 72 77 76 67 70 68 75 67 66 71 62 69 70 69 68 63 61 60 60 62 71 55 65 64 65 61 63 54 56 57 55 64 56 59 58 50 54 57 59 48 52 49 58 48 50 51 49 52 122 123 124 123 122 125 126 127 128 127 129 128 130 131 132 133 134 135 136 137 138 139 140 141 139 142 143 144 145 146 147 148 149 150 151 152 153 154 155 128 129 156 157 151 158 159 160 161 162 163 160 164 165 166 159 167 166 168 169 170 166 171 168 172 170 173 174 175 176 157 177 162 152 155 154 128 178 179 126 128 179 180 178 175 128 175 178 175 174 181 175 181 180 170 182 175 176 175 182 183 184 170 170 184 182 170 172 183 173 170 169 168 170 166 165 171 166 166 167 164 159 161 167 160 163 161 162 177 163 157 158 177 151 150 158 152 154 150 155 144 153 145 147 146 144 146 153 141 149 148 148 147 145 143 140 139 140 149 141 134 143 142 133 135 138 134 142 135 137 136 130 133 138 137 131 156 132 136 131 130 129 132 156 185 186 187 188 189 190 191 192 193 194 195 196 197 198 199 200 201 202 203 204 195 205 206 207 208 209 210 211 212 213 214 211 215 216 217 218 219 220 221 219 216 222 221 223 185 224 225 221 212 226 227 228 226 187 207 214 205 229 230 231 232 233 234 234 233 235 234 236 237 235 236 234 231 234 238 237 238 234 239 231 240 231 238 240 231 239 229 216 231 241 230 241 231 242 216 243 216 241 243 216 242 217 218 222 216 219 221 216 224 221 220 221 225 223 185 223 186 187 186 228 226 228 227 212 227 213 211 213 215 214 215 205 207 206 210 209 208 201 210 206 208 203 200 202 200 209 201 196 195 204 204 203 202 198 194 196 199 190 197 198 197 194 188 191 189 199 188 190 193 192 232 189 191 193 233 232 192</p>
        </triangles>
      </mesh>
    </geometry>
    <geometry id="ID19">
      <mesh>
        <source id="ID20">
          <float_array count="588" id="ID21">0.01935 -0.01935 0 0.01935 0.01935 6.65728e-19 0.0185748 0.0185748 0.0222 0.0185748 -0.0185748 0.0222 0.01935 0.01935 6.65728e-19 -0.0185748 0.0185748 0.0222 0.0185748 0.0185748 0.0222 -0.01935 0.01935 8.87637e-19 -0.01935 0.01935 8.87637e-19 -0.0185748 -0.0185748 0.0222 -0.0185748 0.0185748 0.0222 -0.01935 -0.01935 0 -0.0062876 -0.0191334 0.0062029 0.0185748 -0.0185748 0.0222 -0.0185748 -0.0185748 0.0222 -0.01935 -0.01935 0 -0.0062876 -0.0193011 0.00140024 0.01935 -0.01935 0 0.0062876 -0.0191334 0.0062029 0.0062876 -0.0193011 0.00140024 -0.0176861 -0.00150531 0.0222 -0.0176861 0.00150531 0.0222 -0.0185748 -0.0185748 0.0222 0.01775 0 0.0222 0.0185748 -0.0185748 0.0222 0.0185748 0.0185748 0.0222 0.0167361 0.00591323 0.0222 0.0174947 0.00299976 0.0222 0.0138101 0.0111509 0.0222 0.015496 0.00865659 0.0222 0.00930646 0.0151146 0.0222 0.011727 0.0133244 0.0222 0.00373956 0.0173516 0.0222 0.0066182 0.01647 0.0222 -0.0185748 0.0185748 0.0222 0.000753331 0.017734 0.0222 -0.0051976 0.016972 0.0222 -0.00225457 0.0176062 0.0222 -0.0105547 0.0142709 0.0222 -0.00799112 0.0158494 0.0222 -0.014706 0.00993955 0.0222 -0.0128147 0.0122819 0.0222 -0.0171773 0.00447261 0.0222 -0.0161743 0.00731125 0.0222 0.000753331 -0.017734 0.0222 -0.0161743 -0.00731125 0.0222 -0.0171773 -0.00447261 0.0222 -0.0128147 -0.0122819 0.0222 -0.014706 -0.00993955 0.0222 -0.00799112 -0.0158494 0.0222 -0.0105547 -0.0142709 0.0222 -0.00225457 -0.0176062 0.0222 -0.0051976 -0.016972 0.0222 0.0066182 -0.01647 0.0222 0.00373956 -0.0173516 0.0222 0.011727 -0.0133244 0.0222 0.00930646 -0.0151146 0.0222 0.015496 -0.00865659 0.0222 0.0138101 -0.0111509 0.0222 0.0174947 -0.00299976 0.0222 0.0167361 -0.00591323 0.0222 0.01935 0.01935 6.65728e-19 -0.01935 -0.01935 0 -0.01935 0.01935 8.87637e-19 0.01935 -0.01935 0 -0.0176861 0.00150531 0.0222 -0.0172407 -0.0014674 0.035 -0.0172407 0.0014674 0.035 0.01775 0 0.0222 0.017303 0 0.035 0.0174947 -0.00299976 0.0222 -0.0167447 0.00435998 0.035 -0.0171773 0.00447261 0.0222 -0.015767 0.00712713 0.035 -0.0161743 0.00731125 0.0222 -0.014706 0.00993955 0.0222 -0.0143357 0.00968925 0.035 -0.012492 0.0119726 0.035 -0.0128147 0.0122819 0.0222 -0.0102889 0.0139116 0.035 -0.0105547 0.0142709 0.0222 -0.00799112 0.0158494 0.0222 -0.00778988 0.0154503 0.035 -0.00506672 0.0165446 0.035 -0.0051976 0.016972 0.0222 -0.00219779 0.0171629 0.035 -0.00225457 0.0176062 0.0222 0.000753331 0.017734 0.0222 0.000734361 0.0172874 0.035 0.00364539 0.0169147 0.035 0.00373956 0.0173516 0.0222 0.00645154 0.0160553 0.035 0.0066182 0.01647 0.0222 0.00930646 0.0151146 0.0222 0.0090721 0.014734 0.035 0.0114317 0.0129889 0.035 0.011727 0.0133244 0.0222 0.0134624 0.0108701 0.035 0.0138101 0.0111509 0.0222 0.015496 0.00865659 0.0222 0.0151058 0.00843859 0.035 0.0163146 0.00576432 0.035 0.0167361 0.00591323 0.0222 0.0170541 0.00292422 0.035 0.0174947 0.00299976 0.0222 -0.0176861 -0.00150531 0.0222 -0.0171773 -0.00447261 0.0222 -0.0167447 -0.00435998 0.035 -0.015767 -0.00712713 0.035 -0.0161743 -0.00731125 0.0222 -0.014706 -0.00993955 0.0222 -0.0143357 -0.00968925 0.035 -0.0128147 -0.0122819 0.0222 -0.012492 -0.0119726 0.035 -0.0102889 -0.0139116 0.035 -0.0105547 -0.0142709 0.0222 -0.00799112 -0.0158494 0.0222 -0.00778988 -0.0154503 0.035 -0.0051976 -0.016972 0.0222 -0.00506672 -0.0165446 0.035 -0.00219779 -0.0171629 0.035 -0.00225457 -0.0176062 0.0222 0.000753331 -0.017734 0.0222 0.000734361 -0.0172874 0.035 0.00373956 -0.0173516 0.0222 0.00364539 -0.0169147 0.035 0.00645154 -0.0160553 0.035 0.0066182 -0.01647 0.0222 0.00930646 -0.0151146 0.0222 0.0090721 -0.014734 0.035 0.011727 -0.0133244 0.0222 0.0114317 -0.0129889 0.035 0.0134624 -0.0108701 0.035 0.0138101 -0.0111509 0.0222 0.015496 -0.00865659 0.0222 0.0151058 -0.00843859 0.035 0.0167361 -0.00591323 0.0222 0.0163146 -0.00576432 0.035 0.0170541 -0.00292422 0.035 -0.0102889 0.0139116 0.035 0.0151058 -0.00843859 0.035 -0.00778988 0.0154503 0.035 0.0134624 0.0108701 0.035 0.0090721 0.014734 0.035 0.0151058 0.00843859 0.035 0.0114317 0.0129889 0.035 0.0163146 0.00576432 0.035 0.00645154 0.0160553 0.035 0.00364539 0.0169147 0.035 0.0170541 0.00292422 0.035 0.000734361 0.0172874 0.035 0.017303 0 0.035 -0.00506672 0.0165446 0.035 0.0163146 -0.00576432 0.035 0.0170541 -0.00292422 0.035 -0.00219779 0.0171629 0.035 -0.0143357 0.00968925 0.035 -0.015767 0.00712713 0.035 0.0090721 -0.014734 0.035 0.0114317 -0.0129889 0.035 0.0134624 -0.0108701 0.035 -0.012492 0.0119726 0.035 -0.0167447 0.00435998 0.035 0.00364539 -0.0169147 0.035 0.00645154 -0.0160553 0.035 -0.0167447 -0.00435998 0.035 -0.00506672 -0.0165446 0.035 -0.00219779 -0.0171629 0.035 -0.0172407 -0.0014674 0.035 0.000734361 -0.0172874 0.035 -0.0172407 0.0014674 0.035 -0.0143357 -0.00968925 0.035 -0.012492 -0.0119726 0.035 -0.0102889 -0.0139116 0.035 -0.00778988 -0.0154503 0.035 -0.015767 -0.00712713 0.035 0.0062876 -0.0157033 0.0012746 0.0062876 -0.0191334 0.0062029 0.0062876 -0.0155356 0.00607726 0.0062876 -0.0193011 0.00140024 0.0062876 -0.0193011 0.00140024 0.0062876 -0.0157033 0.0012746 -0.0062876 -0.0157033 0.0012746 -0.0062876 -0.0193011 0.00140024 -0.0062876 -0.0191334 0.0062029 -0.0062876 -0.0157033 0.0012746 -0.0062876 -0.0155356 0.00607726 -0.0062876 -0.0193011 0.00140024 0.0062876 -0.0155356 0.00607726 -0.0062876 -0.0191334 0.0062029 -0.0062876 -0.0155356 0.00607726 0.0062876 -0.0191334 0.0062029 0.0062876 -0.0155356 0.00607726 -0.0062876 -0.0155356 0.00607726 -0.0062876 -0.0157033 0.0012746 0.0062876 -0.0157033 0.0012746</float_array>
          <technique_common>
            <accessor count="196" source="#ID21" stride="3">
              <param name="X" type="float"/>
              <param name="Y" type="float"/>
              <param name="Z" type="float"/>
            </accessor>
          </technique_common>
        </source>
        <source id="ID22">
          <float_array count="588" id="ID23">0.999391 0 0.0348995 0.999391 0 0.0348995 0.999391 0 0.0348995 0.999391 0 0.0348995 0 0.999391 0.0348995 0 0.999391 0.0348995 0 0.999391 0.0348995 0 0.999391 0.0348995 -0.999391 0 0.0348995 -0.999391 0 0.0348995 -0.999391 0 0.0348995 -0.999391 0 0.0348995 0 -0.999391 0.0348995 0 -0.999391 0.0348995 0 -0.999391 0.0348995 0 -0.999391 0.0348995 0 -0.999391 0.0348995 0 -0.999391 0.0348995 0 -0.999391 0.0348995 0 -0.999391 0.0348995 0 0 1 0 0 1 0 0 1 0 0 1 0 0 1 0 0 1 0 0 1 0 0 1 0 0 1 0 0 1 0 0 1 0 0 1 0 0 1 0 0 1 0 0 1 0 0 1 0 0 1 0 0 1 0 0 1 0 0 1 0 0 1 0 0 1 0 0 1 0 0 1 0 0 1 0 0 1 0 0 1 0 0 1 0 0 1 0 0 1 0 0 1 0 0 1 0 0 1 0 0 1 0 0 1 0 0 1 0 0 1 0 0 1 0 0 1 0 0 1 0 0 1 0 0 -1 0 0 -1 0 0 -1 0 0 -1 -0.995791 0.0847542 0.0348995 -0.99579 -0.0847543 0.0348995 -0.995791 0.0847542 0.0348995 0.999391 -9.07242e-12 0.0348995 0.999391 2.07177e-23 0.0348995 0.985016 -0.168898 0.0348995 -0.967143 0.251824 0.0348995 -0.967143 0.251825 0.0348995 -0.910673 0.41165 0.0348995 -0.910673 0.41165 0.0348995 -0.828005 0.559634 0.0348995 -0.828005 0.559634 0.0348995 -0.721516 0.691517 0.0348995 -0.721516 0.691517 0.0348995 -0.594271 0.803507 0.0348995 -0.594271 0.803507 0.0348995 -0.449929 0.892382 0.0348995 -0.449929 0.892382 0.0348995 -0.292644 0.955584 0.0348995 -0.292644 0.955584 0.0348995 -0.12694 0.991296 0.0348995 -0.126941 0.991296 0.0348995 0.0424156 0.99849 0.0348995 0.0424156 0.99849 0.0348995 0.210551 0.97696 0.0348995 0.210551 0.97696 0.0348995 0.372629 0.927324 0.0348995 0.372629 0.927324 0.0348995 0.523988 0.85101 0.0348995 0.523988 0.85101 0.0348995 0.660272 0.750215 0.0348995 0.660272 0.750215 0.0348995 0.777562 0.627837 0.0348995 0.777562 0.627837 0.0348995 0.872482 0.487398 0.0348995 0.872482 0.487398 0.0348995 0.942303 0.332937 0.0348995 0.942303 0.332937 0.0348995 0.985016 0.168898 0.0348995 0.985016 0.168898 0.0348995 -0.99579 -0.0847543 0.0348995 -0.967143 -0.251825 0.0348995 -0.967143 -0.251825 0.0348995 -0.910673 -0.41165 0.0348995 -0.910673 -0.41165 0.0348995 -0.828005 -0.559634 0.0348995 -0.828005 -0.559634 0.0348995 -0.721516 -0.691517 0.0348995 -0.721516 -0.691517 0.0348995 -0.594271 -0.803507 0.0348995 -0.594271 -0.803507 0.0348995 -0.449929 -0.892382 0.0348995 -0.449929 -0.892382 0.0348995 -0.292644 -0.955584 0.0348995 -0.292644 -0.955584 0.0348995 -0.12694 -0.991296 0.0348995 -0.126941 -0.991296 0.0348995 0.0424154 -0.99849 0.0348995 0.0424154 -0.99849 0.0348995 0.210551 -0.97696 0.0348995 0.210551 -0.97696 0.0348995 0.372629 -0.927324 0.0348995 0.372629 -0.927324 0.0348995 0.523988 -0.85101 0.0348995 0.523988 -0.85101 0.0348995 0.660272 -0.750215 0.0348995 0.660272 -0.750215 0.0348995 0.777562 -0.627837 0.0348995 0.777562 -0.627837 0.0348995 0.872482 -0.487398 0.0348995 0.872482 -0.487398 0.0348995 0.942303 -0.332937 0.0348995 0.942303 -0.332937 0.0348995 0.985016 -0.168898 0.0348995 0 0 1 0 0 1 0 0 1 0 0 1 0 0 1 0 0 1 0 0 1 0 0 1 0 0 1 0 0 1 0 0 1 0 0 1 0 0 1 0 0 1 0 0 1 0 0 1 0 0 1 0 0 1 0 0 1 0 0 1 0 0 1 0 0 1 0 0 1 0 0 1 0 0 1 0 0 1 0 0 1 0 0 1 0 0 1 0 0 1 0 0 1 0 0 1 0 0 1 0 0 1 0 0 1 0 0 1 0 0 1 -1 -0 -0 -1 -0 -0 -1 -0 -0 -1 -0 -0 0 0.0348995 0.999391 0 0.0348995 0.999391 0 0.0348995 0.999391 0 0.0348995 0.999391 1 0 0 1 0 0 1 0 0 1 0 0 -0 -0.0348995 -0.999391 -0 -0.0348995 -0.999391 -0 -0.0348995 -0.999391 -0 -0.0348995 -0.999391 0 -0.999391 0.0348995 0 -0.999391 0.0348995 0 -0.999391 0.0348995 0 -0.999391 0.0348995</float_array>
          <technique_common>
            <accessor count="196" source="#ID23" stride="3">
              <param name="X" type="float"/>
              <param name="Y" type="float"/>
              <param name="Z" type="float"/>
            </accessor>
          </technique_common>
        </source>
        <vertices id="ID24">
          <input semantic="POSITION" source="#ID20"/>
          <input semantic="NORMAL" source="#ID22"/>
        </vertices>
        <triangles count="176" material="ID10">
          <input offset="0" semantic="VERTEX" source="#ID24"/>
          <p>0 1 2 0 2 3 4 5 6 5 4 7 8 9 10 9 8 11 12 13 14 12 14 15 12 15 16 17 13 18 13 12 18 15 17 19 17 18 19 15 19 16 20 21 22 23 24 25 26 27 25 25 27 23 28 29 25 25 29 26 30 31 25 25 31 28 32 33 25 25 33 30 34 35 25 25 35 32 36 37 34 34 37 35 38 39 34 34 39 36 40 41 34 34 41 38 42 43 34 34 43 40 22 21 34 34 21 42 24 44 22 45 46 22 22 46 20 47 48 22 22 48 45 49 50 22 22 50 47 51 52 22 22 52 49 22 44 51 53 54 24 24 54 44 55 56 24 24 56 53 57 58 24 24 58 55 59 60 24 24 60 57 23 59 24 61 62 63 62 61 64 65 66 67 68 69 70 71 72 67 65 67 72 71 73 74 74 72 71 75 73 76 73 75 74 77 78 76 75 76 78 77 79 80 80 78 77 81 79 82 79 81 80 83 84 82 81 82 84 83 85 86 86 84 83 87 85 88 85 87 86 89 90 88 87 88 90 89 91 92 92 90 89 93 91 94 91 93 92 95 96 94 93 94 96 95 97 98 98 96 95 99 97 100 97 99 98 101 102 100 99 100 102 101 103 104 104 102 101 103 68 104 68 103 69 105 66 65 105 106 107 107 66 105 108 106 109 106 108 107 110 111 109 108 109 111 110 112 113 113 111 110 114 112 115 112 114 113 116 117 115 114 115 117 116 118 119 119 117 116 120 118 121 118 120 119 122 123 121 120 121 123 122 124 125 125 123 122 126 124 127 124 126 125 128 129 127 126 127 129 128 130 131 131 129 128 132 130 133 130 132 131 134 135 133 132 133 135 134 136 137 137 135 134 138 136 70 136 138 137 138 70 69 139 140 141 142 143 144 142 145 143 146 144 147 143 147 144 148 149 146 146 147 148 149 150 151 150 149 148 152 153 154 150 155 151 156 157 158 159 160 161 162 163 164 165 166 167 168 169 170 171 172 173 174 175 171 175 174 166 171 173 174 168 165 167 165 175 166 169 168 167 162 170 163 163 170 169 158 157 164 164 157 162 159 161 156 158 159 156 160 140 139 161 160 139 141 153 152 141 140 153 151 155 154 155 152 154 176 177 178 176 179 177 180 181 182 182 183 180 184 185 186 184 187 185 188 189 190 188 191 189 192 193 194 192 194 195</p>
        </triangles>
      </mesh>
    </geometry>
    <geometry id="ID26">
      <mesh>
        <source id="ID27">
          <float_array count="732" id="ID28">-0.0269877 -0.00887729 0 -0.0269877 -0.00887729 0.0036 -0.0269877 -0.00828271 0.0036 -0.0268898 -0.00946375 0 -0.0268898 -0.00946375 0.0036 -0.0266968 -0.0100261 0.0036 -0.0266968 -0.0100261 0 -0.0264138 -0.010549 0 -0.0264138 -0.010549 0.0036 -0.0260486 -0.0110182 0 -0.0260486 -0.0110182 0.0036 -0.0256112 -0.0114209 0.0036 -0.0256112 -0.0114209 0 -0.0251134 -0.0117461 0 -0.0251134 -0.0117461 0.0036 -0.0245689 -0.0119849 0 -0.0245689 -0.0119849 0.0036 -0.0239925 -0.0121309 0.0036 -0.0239925 -0.0121309 0 -0.0234 -0.01218 0 -0.0234 -0.01218 0.0036 -0.0269877 -0.00828271 0 -0.0268898 -0.00769625 0.0036 -0.0268898 -0.00769625 0 -0.0266968 -0.0071339 0.0036 -0.0266968 -0.0071339 0 -0.0264138 -0.00661099 0 -0.0264138 -0.00661099 0.0036 -0.0260486 -0.00614179 0.0036 -0.0260486 -0.00614179 0 -0.0256112 -0.00573909 0.0036 -0.0256112 -0.00573909 0 -0.0251134 -0.00541389 0 -0.0251134 -0.00541389 0.0036 -0.0245689 -0.00517506 0.0036 -0.0245689 -0.00517506 0 -0.0239925 -0.0050291 0.0036 -0.0239925 -0.0050291 0 -0.0234 -0.00498 0.0036 -0.0234 -0.00498 0 -0.01935 -0.01218 0 -0.01935 -0.01218 0.0036 -0.0234 -0.01218 0.0036 -0.0234 -0.01218 0 -0.01935 -0.00498 0 -0.01935 -0.00498 0.0036 -0.01935 -0.01218 0.0036 -0.01935 -0.01218 0 -0.01935 -0.00498 0 -0.0234 -0.00498 0.0036 -0.01935 -0.00498 0.0036 -0.0234 -0.00498 0 -0.0245786 -0.00899642 0 -0.024632 -0.00879125 0.0036 -0.0245786 -0.00899642 0.0036 -0.02465 -0.00858 0.0036 -0.024632 -0.00879125 0 -0.02465 -0.00858 0 -0.0243725 -0.00936528 0.0036 -0.0242258 -0.00951834 0.0036 -0.0242258 -0.00951834 0 -0.0243725 -0.00936528 0 -0.0244913 -0.00918962 0 -0.0244913 -0.00918962 0.0036 -0.0236633 -0.00980194 0 -0.0238661 -0.00973986 0.0036 -0.0236633 -0.00980194 0.0036 -0.0238661 -0.00973986 0 -0.0240554 -0.00964441 0 -0.0240554 -0.00964441 0.0036 -0.023034 -0.00977521 0.0036 -0.023034 -0.00977521 0 -0.0232412 -0.00981988 0.0036 -0.0234531 -0.00982887 0.0036 -0.0232412 -0.00981988 0 -0.0234531 -0.00982887 0 -0.0226567 -0.009585 0.0036 -0.0224976 -0.00944492 0.0036 -0.0224976 -0.00944492 0 -0.0228372 -0.00969616 0 -0.0228372 -0.00969616 0.0036 -0.0226567 -0.009585 0 -0.0221903 -0.00889497 0 -0.022261 -0.00909488 0.0036 -0.0221903 -0.00889497 0.0036 -0.022261 -0.00909488 0 -0.0223644 -0.00927997 0 -0.0223644 -0.00927997 0.0036 -0.0221903 -0.00826503 0.0036 -0.0221903 -0.00826503 0 -0.0221545 -0.00847399 0.0036 -0.0221545 -0.00868601 0.0036 -0.0221545 -0.00847399 0 -0.0221545 -0.00868601 0 -0.0223644 -0.00788003 0.0036 -0.0224976 -0.00771508 0.0036 -0.0224976 -0.00771508 0 -0.022261 -0.00806512 0 -0.022261 -0.00806512 0.0036 -0.0223644 -0.00788003 0 -0.023034 -0.00738479 0 -0.0228372 -0.00746384 0.0036 -0.023034 -0.00738479 0.0036 -0.0228372 -0.00746384 0 -0.0226567 -0.007575 0 -0.0226567 -0.007575 0.0036 -0.0236633 -0.00735806 0 -0.0234531 -0.00733113 0 -0.0234531 -0.00733113 0.0036 -0.0232412 -0.00734012 0.0036 -0.0232412 -0.00734012 0 -0.0236633 -0.00735806 0.0036 -0.0238661 -0.00742014 0 -0.0238661 -0.00742014 0.0036 -0.0240554 -0.00751559 0 -0.0242258 -0.00764166 0 -0.0240554 -0.00751559 0.0036 -0.0242258 -0.00764166 0.0036 -0.0243725 -0.00779472 0 -0.0243725 -0.00779472 0.0036 -0.0244913 -0.00797038 0 -0.0245786 -0.00816358 0 -0.0244913 -0.00797038 0.0036 -0.0245786 -0.00816358 0.0036 -0.024632 -0.00836875 0 -0.024632 -0.00836875 0.0036 -0.0240554 -0.00964441 0.0036 -0.0256112 -0.0114209 0.0036 -0.0251134 -0.0117461 0.0036 -0.0244913 -0.00918962 0.0036 -0.0264138 -0.010549 0.0036 -0.0243725 -0.00936528 0.0036 -0.0239925 -0.0121309 0.0036 -0.0234531 -0.00982887 0.0036 -0.0236633 -0.00980194 0.0036 -0.0266968 -0.0100261 0.0036 -0.0260486 -0.0110182 0.0036 -0.0245786 -0.00899642 0.0036 -0.0268898 -0.00946375 0.0036 -0.024632 -0.00879125 0.0036 -0.0269877 -0.00887729 0.0036 -0.02465 -0.00858 0.0036 -0.0269877 -0.00828271 0.0036 -0.024632 -0.00836875 0.0036 -0.0245786 -0.00816358 0.0036 -0.0268898 -0.00769625 0.0036 -0.0242258 -0.00764166 0.0036 -0.0260486 -0.00614179 0.0036 -0.0243725 -0.00779472 0.0036 -0.0244913 -0.00797038 0.0036 -0.0264138 -0.00661099 0.0036 -0.0266968 -0.0071339 0.0036 -0.0238661 -0.00742014 0.0036 -0.0236633 -0.00735806 0.0036 -0.0245689 -0.00517506 0.0036 -0.0256112 -0.00573909 0.0036 -0.0240554 -0.00751559 0.0036 -0.0251134 -0.00541389 0.0036 -0.0228372 -0.00746384 0.0036 -0.0234 -0.00498 0.0036 -0.023034 -0.00738479 0.0036 -0.0239925 -0.0050291 0.0036 -0.0234531 -0.00733113 0.0036 -0.01935 -0.00498 0.0036 -0.0224976 -0.00771508 0.0036 -0.0223644 -0.00788003 0.0036 -0.0226567 -0.007575 0.0036 -0.022261 -0.00909488 0.0036 -0.01935 -0.01218 0.0036 -0.0221903 -0.00889497 0.0036 -0.0242258 -0.00951834 0.0036 -0.0232412 -0.00734012 0.0036 -0.0238661 -0.00973986 0.0036 -0.0245689 -0.0119849 0.0036 -0.0234 -0.01218 0.0036 -0.0232412 -0.00981988 0.0036 -0.0228372 -0.00969616 0.0036 -0.023034 -0.00977521 0.0036 -0.0226567 -0.009585 0.0036 -0.0223644 -0.00927997 0.0036 -0.0224976 -0.00944492 0.0036 -0.0221545 -0.00868601 0.0036 -0.0221903 -0.00826503 0.0036 -0.0221545 -0.00847399 0.0036 -0.022261 -0.00806512 0.0036 -0.0234531 -0.00733113 0 -0.0234 -0.00498 0 -0.0232412 -0.00734012 0 -0.0269877 -0.00828271 0 -0.02465 -0.00858 0 -0.0269877 -0.00887729 0 -0.0264138 -0.010549 0 -0.0266968 -0.0100261 0 -0.0244913 -0.00918962 0 -0.0243725 -0.00936528 0 -0.0245786 -0.00899642 0 -0.0268898 -0.00946375 0 -0.024632 -0.00879125 0 -0.0239925 -0.0050291 0 -0.0243725 -0.00779472 0 -0.0260486 -0.00614179 0 -0.0242258 -0.00764166 0 -0.01935 -0.00498 0 -0.0223644 -0.00788003 0 -0.0224976 -0.00771508 0 -0.0228372 -0.00746384 0 -0.023034 -0.00738479 0 -0.0226567 -0.007575 0 -0.0240554 -0.00751559 0 -0.0256112 -0.00573909 0 -0.0251134 -0.00541389 0 -0.0238661 -0.00742014 0 -0.0245689 -0.00517506 0 -0.0236633 -0.00735806 0 -0.0245786 -0.00816358 0 -0.024632 -0.00836875 0 -0.0268898 -0.00769625 0 -0.0244913 -0.00797038 0 -0.0266968 -0.0071339 0 -0.0264138 -0.00661099 0 -0.0221903 -0.00889497 0 -0.01935 -0.01218 0 -0.022261 -0.00909488 0 -0.0234531 -0.00982887 0 -0.0239925 -0.0121309 0 -0.0236633 -0.00980194 0 -0.0256112 -0.0114209 0 -0.0240554 -0.00964441 0 -0.0251134 -0.0117461 0 -0.0242258 -0.00951834 0 -0.0260486 -0.0110182 0 -0.0238661 -0.00973986 0 -0.0245689 -0.0119849 0 -0.0234 -0.01218 0 -0.0232412 -0.00981988 0 -0.023034 -0.00977521 0 -0.0228372 -0.00969616 0 -0.0226567 -0.009585 0 -0.0223644 -0.00927997 0 -0.0224976 -0.00944492 0 -0.0221545 -0.00868601 0 -0.0221903 -0.00826503 0 -0.0221545 -0.00847399 0 -0.022261 -0.00806512 0</float_array>
          <technique_common>
            <accessor count="244" source="#ID28" stride="3">
              <param name="X" type="float"/>
              <param name="Y" type="float"/>
              <param name="Z" type="float"/>
            </accessor>
          </technique_common>
        </source>
        <source id="ID29">
          <float_array count="732" id="ID30">-0.996584 -0.0825793 -0 -0.996584 -0.0825793 -0 -0.996584 0.0825795 0 -0.9694 -0.245486 -0 -0.9694 -0.245486 -0 -0.915773 -0.401695 -0 -0.915773 -0.401695 -0 -0.837166 -0.546948 -0 -0.837166 -0.546948 -0 -0.735724 -0.677282 -0 -0.735724 -0.677282 -0 -0.614213 -0.789141 -0 -0.614213 -0.789141 -0 -0.475947 -0.879474 -0 -0.475947 -0.879474 -0 -0.3247 -0.945817 -0 -0.3247 -0.945817 -0 -0.164595 -0.986361 -0 -0.164595 -0.986361 -0 -4.37114e-08 -1 -0 -4.37114e-08 -1 -0 -0.996584 0.0825795 0 -0.9694 0.245486 0 -0.9694 0.245486 0 -0.915773 0.401695 0 -0.915773 0.401695 0 -0.837166 0.546948 0 -0.837166 0.546948 0 -0.735724 0.677281 0 -0.735724 0.677281 0 -0.614213 0.789141 0 -0.614213 0.789141 0 -0.475947 0.879474 0 -0.475947 0.879474 0 -0.3247 0.945817 0 -0.3247 0.945817 0 -0.164595 0.986361 0 -0.164595 0.986361 0 1.19249e-08 1 0 1.19249e-08 1 0 -0 -1 -0 -0 -1 -0 -0 -1 -0 -0 -1 -0 1 0 0 1 0 0 1 0 0 1 0 0 0 1 0 0 1 0 0 1 0 0 1 0 0.942877 0.33314 0 0.985616 0.169001 0 0.942877 0.33314 0 1 -1.74846e-07 0 0.985616 0.169001 0 1 3.01992e-07 0 0.778036 0.62822 0 0.660675 0.750672 0 0.660675 0.750672 0 0.778036 0.62822 0 0.873014 0.487695 0 0.873014 0.487695 0 0.210679 0.977555 0 0.372856 0.927889 0 0.210679 0.977555 0 0.372857 0.927889 0 0.524307 0.851529 0 0.524307 0.851529 0 -0.292823 0.956167 0 -0.292823 0.956167 0 -0.127018 0.9919 0 0.0424415 0.999099 0 -0.127018 0.9919 0 0.042441 0.999099 0 -0.594633 0.803997 0 -0.721956 0.691939 0 -0.721956 0.691939 0 -0.450204 0.892926 0 -0.450204 0.892926 0 -0.594633 0.803997 0 -0.967733 0.251978 0 -0.911228 0.411901 0 -0.967733 0.251978 0 -0.911228 0.411901 0 -0.82851 0.559975 0 -0.82851 0.559975 0 -0.967733 -0.251978 -0 -0.967733 -0.251978 -0 -0.996397 -0.0848059 -0 -0.996397 0.0848059 0 -0.996397 -0.0848059 -0 -0.996397 0.0848059 0 -0.82851 -0.559975 -0 -0.721956 -0.691939 -0 -0.721956 -0.691939 -0 -0.911228 -0.411901 -0 -0.911229 -0.411901 -0 -0.82851 -0.559975 -0 -0.292823 -0.956167 -0 -0.450204 -0.892926 -0 -0.292823 -0.956167 -0 -0.450204 -0.892926 -0 -0.594633 -0.803997 -0 -0.594633 -0.803997 -0 0.210679 -0.977555 0 0.0424412 -0.999099 0 0.0424412 -0.999099 0 -0.127018 -0.9919 -0 -0.127018 -0.9919 -0 0.210679 -0.977555 0 0.372857 -0.927889 0 0.372856 -0.927889 0 0.524307 -0.851529 0 0.660675 -0.750672 0 0.524307 -0.851529 0 0.660675 -0.750672 0 0.778036 -0.62822 0 0.778036 -0.62822 0 0.873014 -0.487695 0 0.942877 -0.33314 0 0.873014 -0.487695 0 0.942877 -0.33314 0 0.985616 -0.169001 0 0.985616 -0.169001 0 0 0 1 0 0 1 0 0 1 0 0 1 0 0 1 0 0 1 0 0 1 0 0 1 0 0 1 0 0 1 0 0 1 0 0 1 0 0 1 0 0 1 0 0 1 0 0 1 0 0 1 0 0 1 0 0 1 0 0 1 0 0 1 0 0 1 0 0 1 0 0 1 0 0 1 0 0 1 0 0 1 0 0 1 0 0 1 0 0 1 0 0 1 0 0 1 0 0 1 0 0 1 0 0 1 0 0 1 0 0 1 0 0 1 0 0 1 0 0 1 0 0 1 0 0 1 0 0 1 0 0 1 0 0 1 0 0 1 0 0 1 0 0 1 0 0 1 0 0 1 0 0 1 0 0 1 0 0 1 0 0 1 0 0 1 0 0 1 0 0 1 0 0 1 0 0 1 0 0 -1 0 0 -1 0 0 -1 0 0 -1 0 0 -1 0 0 -1 0 0 -1 0 0 -1 0 0 -1 0 0 -1 0 0 -1 0 0 -1 0 0 -1 0 0 -1 0 0 -1 0 0 -1 0 0 -1 0 0 -1 0 0 -1 0 0 -1 0 0 -1 0 0 -1 0 0 -1 0 0 -1 0 0 -1 0 0 -1 0 0 -1 0 0 -1 0 0 -1 0 0 -1 0 0 -1 0 0 -1 0 0 -1 0 0 -1 0 0 -1 0 0 -1 0 0 -1 0 0 -1 0 0 -1 0 0 -1 0 0 -1 0 0 -1 0 0 -1 0 0 -1 0 0 -1 0 0 -1 0 0 -1 0 0 -1 0 0 -1 0 0 -1 0 0 -1 0 0 -1 0 0 -1 0 0 -1 0 0 -1 0 0 -1 0 0 -1 0 0 -1 0 0 -1</float_array>
          <technique_common>
            <accessor count="244" source="#ID30" stride="3">
              <param name="X" type="float"/>
              <param name="Y" type="float"/>
              <param name="Z" type="float"/>
            </accessor>
          </technique_common>
        </source>
        <vertices id="ID31">
          <input semantic="POSITION" source="#ID27"/>
          <input semantic="NORMAL" source="#ID29"/>
        </vertices>
        <triangles count="236" material="ID10">
          <input offset="0" semantic="VERTEX" source="#ID31"/>
          <p>0 1 2 1 3 4 3 1 0 5 4 6 3 6 4 7 8 5 5 6 7 8 9 10 9 8 7 11 10 12 9 12 10 13 14 11 11 12 13 14 15 16 15 14 13 17 16 18 15 18 16 19 20 17 17 18 19 0 2 21 22 23 21 21 2 22 23 24 25 24 23 22 26 25 27 24 27 25 28 29 26 26 27 28 29 30 31 30 29 28 32 31 33 30 33 31 34 35 32 32 33 34 35 36 37 36 35 34 36 38 37 37 38 39 40 41 42 42 43 40 44 45 46 46 47 44 48 49 50 49 48 51 52 53 54 55 56 57 58 59 60 61 62 63 64 65 66 67 68 69 70 71 72 73 74 75 76 77 78 79 80 81 82 83 84 85 86 87 88 89 90 91 92 93 94 95 96 97 98 99 100 101 102 103 104 105 106 107 108 109 107 110 106 111 112 111 106 108 113 114 112 112 111 113 115 114 116 113 116 114 115 117 118 117 115 116 119 120 118 118 117 119 121 120 122 119 122 120 121 123 124 123 121 122 125 57 124 124 123 125 109 110 102 125 55 57 107 109 108 103 101 100 100 102 110 95 105 104 105 101 103 94 96 99 95 104 96 98 97 88 94 99 98 89 92 90 97 89 88 93 84 91 92 91 90 85 83 82 82 84 93 77 87 86 87 83 85 76 78 81 77 86 78 80 79 70 76 81 80 71 74 72 79 71 70 75 66 73 74 73 72 67 65 64 64 66 75 59 69 68 69 65 67 58 60 61 59 68 60 63 62 54 58 61 63 52 56 53 62 52 54 55 53 56 126 127 128 129 130 131 132 133 134 129 135 130 136 131 130 135 137 138 137 135 129 139 140 138 138 137 139 140 141 142 141 140 139 143 144 145 146 147 148 149 150 151 152 153 154 155 156 157 158 159 160 159 161 162 163 164 165 166 163 159 167 168 169 170 136 127 162 171 159 136 170 131 127 126 170 172 128 173 128 172 126 134 173 132 134 172 173 174 175 133 133 132 174 174 176 177 175 174 177 168 178 174 176 174 178 179 180 168 168 180 178 168 167 179 163 181 168 169 168 181 182 183 163 163 183 181 163 165 184 163 184 182 164 163 166 166 159 158 171 160 159 161 153 162 157 152 154 154 153 161 146 156 155 156 152 157 148 147 150 146 155 147 149 151 144 148 150 149 145 142 143 151 145 144 141 143 142 185 186 187 188 189 190 191 192 193 193 194 191 195 192 196 192 195 193 190 197 196 195 196 197 186 185 198 199 200 201 202 203 204 186 205 206 207 186 202 208 209 210 211 212 213 214 215 216 217 218 219 220 221 222 223 224 225 226 227 228 229 226 230 189 197 190 230 194 229 191 194 230 226 229 227 231 232 228 228 227 231 225 224 232 225 232 231 233 223 234 223 233 224 233 235 236 234 235 233 221 233 237 236 237 233 238 221 239 221 237 239 221 238 222 202 221 240 220 240 221 241 202 242 202 240 242 202 243 203 202 241 243 204 207 202 207 205 186 187 186 206 198 185 213 210 212 211 212 198 213 201 209 208 208 210 211 199 219 200 201 200 209 217 214 218 199 217 219 216 215 188 218 214 216 189 188 215</p>
        </triangles>
      </mesh>
    </geometry>
  </library_geometries>

  <library_visual_scenes>
    <visual_scene id="ID1">
      <node id="ID2">
        <node>
          <matrix>1 0 0 0 0 1 0 0 0 0 1 0 0 0 0 1</matrix>
          <instance_node url="#ID3"/>
        </node>
        <node>
          <matrix>1 0 0 0 0 1 0 0 0 0 1 0 0 0 0 1</matrix>
          <instance_node url="#ID11"/>
        </node>
        <node>
          <matrix>1 0 0 0 0 1 0 0 0 0 1 0 0 0 0 1</matrix>
          <instance_node url="#ID18"/>
        </node>
        <node>
          <matrix>1 0 0 0 0 1 0 0 0 0 1 0 0 0 0 1</matrix>
          <instance_node url="#ID25"/>
        </node>
      </node>
    </visual_scene>
  </library_visual_scenes>

  <scene>
    <instance_visual_scene url="#ID1"/>
  </scene>

  <library_nodes>
    <node id="ID3">
      <instance_geometry url="#ID4">
        <bind_material>
          <technique_common>
            <instance_material symbol="ID10" target="#ID10"/>
          </technique_common>
        </bind_material>
      </instance_geometry>
    </node>
    <node id="ID11">
      <instance_geometry url="#ID12">
        <bind_material>
          <technique_common>
            <instance_material symbol="ID10" target="#ID10"/>
          </technique_common>
        </bind_material>
      </instance_geometry>
    </node>
    <node id="ID18">
      <instance_geometry url="#ID19">
        <bind_material>
          <technique_common>
            <instance_material symbol="ID10" target="#ID10"/>
          </technique_common>
        </bind_material>
      </instance_geometry>
    </node>
    <node id="ID25">
      <instance_geometry url="#ID26">
        <bind_material>
          <technique_common>
            <instance_material symbol="ID10" target="#ID10"/>
          </technique_common>
        </bind_material>
      </instance_geometry>
    </node>
  </library_nodes>

</COLLADA>
