<?xml version="1.0" encoding="UTF-8" standalone="no" ?>
<COLLADA version="1.4.1" xmlns="http://www.collada.org/2005/11/COLLADASchema">

  <asset>
    <contributor>
      <authoring_tool>ONSHAPE BY PTC INC, 1.211</authoring_tool>
    </contributor>
    <created>2026-02-23T05:24:51</created>
    <modified>2026-02-23T05:24:51</modified>
    <unit meter="1" name="meters"/>
    <up_axis>Z_UP</up_axis>
  </asset>

  <library_materials>
    <material id="ID10" name="ID10">
      <instance_effect url="#ID10-fx"/>
    </material>
  </library_materials>

  <library_effects>
    <effect id="ID10-fx" name="ID10">
      <profile_COMMON>
        <technique sid="COMMON">
          <lambert>
            <diffuse>
              <color sid="diffuse">0.2 0.22 0.25 1</color>
            </diffuse>
            <transparent opaque="A_ONE">
              <color sid="transparent">1 1 1 1</color>
            </transparent>
            <transparency>
              <float sid="transparency">1</float>
            </transparency>
          </lambert>
        </technique>
        <extra>
          <technique profile="OTHER">
            <double_sided>1</double_sided>
          </technique>
        </extra>
      </profile_COMMON>
    </effect>
  </library_effects>

  <library_geometries>
    <geometry id="ID4">
      <mesh>
        <source id="ID5">
          <float_array count="912" id="ID6">-0.0162444 0.0248638 0.018 -0.0177758 0.0272079 0.018 -0.0220117 0.023911 0.018 0.00797828 0.0315055 0.018 0.0119304 0.0271985 0.018 0.0130551 0.0297626 0.018 0.00268383 0.032389 0.018 0.00729092 0.0287912 0.018 0.0177758 0.0272079 0.018 0.0162444 0.0248638 0.018 -0.00268383 0.032389 0.018 0.00245261 0.0295986 0.018 0.0220117 0.023911 0.018 0.0201153 0.021851 0.018 -0.00797828 0.0315055 0.018 -0.00245261 0.0295986 0.018 0.0285829 0.0154683 0.018 0.0256471 0.0199619 0.018 0.0234375 0.0182421 0.018 -0.0130551 0.0297626 0.018 -0.00729092 0.0287912 0.018 0.0261204 0.0141356 0.018 0.0280908 0.00964357 0.018 0.0307391 0.0105527 0.018 -0.0119304 0.0271985 0.018 0.0292949 -0.00488846 0.018 0.0307391 -0.0105527 0.018 0.0320567 -0.00534932 0.018 -0.0261204 0.0141356 0.018 -0.0234375 0.0182421 0.018 -0.0256471 0.0199619 0.018 -0.0297 0 0.018 -0.0292949 0.00488846 0.018 -0.0320567 0.00534932 0.018 -0.0261204 -0.0141356 0.018 -0.0280908 -0.00964357 0.018 -0.0307391 -0.0105527 0.018 0.0261204 -0.0141356 0.018 0.0234375 -0.0182421 0.018 0.0256471 -0.0199619 0.018 -0.0201153 -0.021851 0.018 -0.0220117 -0.023911 0.018 -0.0162444 -0.0248638 0.018 0.0130551 -0.0297626 0.018 0.0177758 -0.0272079 0.018 0.0119304 -0.0271985 0.018 -0.00268383 -0.032389 0.018 -0.00729092 -0.0287912 0.018 -0.00797828 -0.0315055 0.018 0.00268383 -0.032389 0.018 -0.00245261 -0.0295986 0.018 -0.0177758 -0.0272079 0.018 -0.0130551 -0.0297626 0.018 -0.0119304 -0.0271985 0.018 0.00797828 -0.0315055 0.018 0.00245261 -0.0295986 0.018 -0.0256471 -0.0199619 0.018 -0.0234375 -0.0182421 0.018 0.00729092 -0.0287912 0.018 0.0220117 -0.023911 0.018 0.0162444 -0.0248638 0.018 -0.0285829 -0.0154683 0.018 -0.0292949 -0.00488846 0.018 -0.0320567 -0.00534932 0.018 0.0201153 -0.021851 0.018 0.0285829 -0.0154683 0.018 0.0280908 -0.00964357 0.018 -0.0325 -1.04528e-17 0.018 -0.0280908 0.00964357 0.018 -0.0307391 0.0105527 0.018 0.0297 -9.55225e-18 0.018 -0.0285829 0.0154683 0.018 -0.0201153 0.021851 0.018 0.0325 0 0.018 0.0320567 0.00534932 0.018 0.0292949 0.00488846 0.018 -0.00268383 0.032389 0.008 -0.00268383 0.032389 0.018 0.00268383 0.032389 0.018 0.0320567 -0.00534932 0.018 0.0325 3.9801e-18 0.008 0.0325 0 0.018 -0.00797828 0.0315055 0.008 -0.00797828 0.0315055 0.018 -0.0130551 0.0297626 0.018 -0.0130551 0.0297626 0.008 -0.0177758 0.0272079 0.008 -0.0177758 0.0272079 0.018 -0.0220117 0.023911 0.008 -0.0220117 0.023911 0.018 -0.0256471 0.0199619 0.018 -0.0256471 0.0199619 0.008 -0.0285829 0.0154683 0.008 -0.0285829 0.0154683 0.018 -0.0307391 0.0105527 0.008 -0.0307391 0.0105527 0.018 -0.0320567 0.00534932 0.018 -0.0320567 0.00534932 0.008 -0.0325 0 0.008 -0.0325 -1.04528e-17 0.018 0.00268383 0.032389 0.008 0.00797828 0.0315055 0.018 0.00797828 0.0315055 0.008 0.0130551 0.0297626 0.018 0.0130551 0.0297626 0.008 0.0177758 0.0272079 0.008 0.0177758 0.0272079 0.018 0.0220117 0.023911 0.018 0.0220117 0.023911 0.008 0.0256471 0.0199619 0.018 0.0256471 0.0199619 0.008 0.0285829 0.0154683 0.008 0.0285829 0.0154683 0.018 0.0307391 0.0105527 0.018 0.0307391 0.0105527 0.008 0.0320567 0.00534932 0.018 0.0320567 0.00534932 0.008 0.0256471 -0.0199619 0.018 0.0285855 -0.0154618 0.008 0.0285829 -0.0154683 0.018 0.0307391 -0.0105527 0.018 0.0307401 -0.0105477 0.008 0.0320565 -0.00535081 0.008 0.017784 -0.0272014 0.008 0.0177758 -0.0272079 0.018 0.0130551 -0.0297626 0.018 0.0256516 -0.0199547 0.008 0.0220117 -0.023911 0.018 0.0220181 -0.0239038 0.008 0.00268383 -0.032389 0.018 -0.00268383 -0.032389 0.018 0.00269464 -0.0323873 0.008 0.00797828 -0.0315055 0.018 0.00798877 -0.031502 0.008 0.0130647 -0.0297574 0.008 -0.0177758 -0.0272079 0.018 -0.0130465 -0.0297659 0.008 -0.0130551 -0.0297626 0.018 -0.0079685 -0.0315074 0.008 -0.00267327 -0.0323892 0.008 -0.00797828 -0.0315055 0.018 -0.0256434 -0.0199664 0.008 -0.0220063 -0.0239156 0.008 -0.0256471 -0.0199619 0.018 -0.0177688 -0.0272121 0.008 -0.0220117 -0.023911 0.018 -0.0285829 -0.0154683 0.018 -0.0285807 -0.0154721 0.008 -0.0307391 -0.0105527 0.018 -0.0307381 -0.0105556 0.008 -0.0320565 -0.00535081 0.008 -0.0320567 -0.00534932 0.018 -0.00245261 0.0295986 0.00704681 0.00245261 0.0295986 0.018 -0.00245261 0.0295986 0.018 0.0292949 -0.00488846 0.018 0.0297 -9.55225e-18 0.018 0.0297 3.6372e-18 0.00704681 -0.00729092 0.0287912 0.018 -0.00729092 0.0287912 0.00704681 -0.0119304 0.0271985 0.018 -0.0119304 0.0271985 0.00704681 -0.0162444 0.0248638 0.00704681 -0.0162444 0.0248638 0.018 -0.0201153 0.021851 0.018 -0.0201153 0.021851 0.00704681 -0.0234375 0.0182421 0.018 -0.0234375 0.0182421 0.00704681 -0.0261204 0.0141356 0.00704681 -0.0261204 0.0141356 0.018 -0.0280908 0.00964357 0.018 -0.0280908 0.00964357 0.00704681 -0.0292949 0.00488846 0.018 -0.0292949 0.00488846 0.00704681 -0.0297 0 0.00704681 -0.0297 0 0.018 0.00245261 0.0295986 0.00704681 0.00729092 0.0287912 0.018 0.00729092 0.0287912 0.00704681 0.0119304 0.0271985 0.00704681 0.0119304 0.0271985 0.018 0.0162444 0.0248638 0.00704681 0.0162444 0.0248638 0.018 0.0201153 0.021851 0.018 0.0201153 0.021851 0.00704681 0.0234375 0.0182421 0.00704681 0.0234375 0.0182421 0.018 0.0261204 0.0141356 0.00704681 0.0261204 0.0141356 0.018 0.0280908 0.00964357 0.018 0.0280908 0.00964357 0.00704681 0.0292949 0.00488846 0.00704681 0.0292949 0.00488846 0.018 0.0234375 -0.0182421 0.018 0.0261204 -0.0141356 0.018 0.0261204 -0.0141356 0.00704681 0.0280908 -0.00964357 0.018 0.0292949 -0.00488846 0.00704681 0.0280908 -0.00964357 0.00704681 0.0162444 -0.0248638 0.00704681 0.0119304 -0.0271985 0.018 0.0162444 -0.0248638 0.018 0.0234375 -0.0182421 0.00704681 0.0201153 -0.021851 0.00704681 0.0201153 -0.021851 0.018 0.00245261 -0.0295986 0.018 0.00245261 -0.0295986 0.00704681 -0.00245261 -0.0295986 0.018 0.00729092 -0.0287912 0.018 0.0119304 -0.0271985 0.00704681 0.00729092 -0.0287912 0.00704681 -0.0162444 -0.0248638 0.018 -0.0119304 -0.0271985 0.018 -0.0119304 -0.0271985 0.00704681 -0.00729092 -0.0287912 0.00704681 -0.00729092 -0.0287912 0.018 -0.00245261 -0.0295986 0.00704681 -0.0234375 -0.0182421 0.00704681 -0.0234375 -0.0182421 0.018 -0.0201153 -0.021851 0.00704681 -0.0162444 -0.0248638 0.00704681 -0.0201153 -0.021851 0.018 -0.0261204 -0.0141356 0.018 -0.0261204 -0.0141356 0.00704681 -0.0280908 -0.00964357 0.00704681 -0.0280908 -0.00964357 0.018 -0.0292949 -0.00488846 0.00704681 -0.0292949 -0.00488846 0.018 -0.0325 0 0.008 -0.0297 0 0.00704681 -0.0320565 -0.00535081 0.008 0.0325 3.9801e-18 0.008 0.0297 3.6372e-18 0.00704681 0.0320567 0.00534932 0.008 -0.0307381 -0.0105556 0.008 -0.0292949 -0.00488846 0.00704681 -0.0280908 -0.00964357 0.00704681 -0.0285807 -0.0154721 0.008 -0.0261204 -0.0141356 0.00704681 -0.0256434 -0.0199664 0.008 -0.0220063 -0.0239156 0.008 -0.0234375 -0.0182421 0.00704681 -0.0201153 -0.021851 0.00704681 -0.0177688 -0.0272121 0.008 -0.0162444 -0.0248638 0.00704681 -0.0130465 -0.0297659 0.008 -0.0079685 -0.0315074 0.008 -0.0119304 -0.0271985 0.00704681 -0.00729092 -0.0287912 0.00704681 -0.00267327 -0.0323892 0.008 -0.00245261 -0.0295986 0.00704681 0.00269464 -0.0323873 0.008 0.00245261 -0.0295986 0.00704681 0.00729092 -0.0287912 0.00704681 0.00798877 -0.031502 0.008 0.0119304 -0.0271985 0.00704681 0.0130647 -0.0297574 0.008 0.017784 -0.0272014 0.008 0.0162444 -0.0248638 0.00704681 0.0201153 -0.021851 0.00704681 0.0220181 -0.0239038 0.008 0.0234375 -0.0182421 0.00704681 0.0256516 -0.0199547 0.008 0.0285855 -0.0154618 0.008 0.0261204 -0.0141356 0.00704681 0.0280908 -0.00964357 0.00704681 0.0307401 -0.0105477 0.008 0.0292949 -0.00488846 0.00704681 0.0320565 -0.00535081 0.008 -0.0292949 0.00488846 0.00704681 -0.0320567 0.00534932 0.008 -0.0280908 0.00964357 0.00704681 -0.0307391 0.0105527 0.008 -0.0261204 0.0141356 0.00704681 -0.0234375 0.0182421 0.00704681 -0.0285829 0.0154683 0.008 -0.0256471 0.0199619 0.008 -0.0201153 0.021851 0.00704681 -0.0220117 0.023911 0.008 -0.0162444 0.0248638 0.00704681 -0.0119304 0.0271985 0.00704681 -0.0177758 0.0272079 0.008 -0.0130551 0.0297626 0.008 -0.00729092 0.0287912 0.00704681 -0.00797828 0.0315055 0.008 -0.00245261 0.0295986 0.00704681 -0.00268383 0.032389 0.008 0.00268383 0.032389 0.008 0.00245261 0.0295986 0.00704681 0.00797828 0.0315055 0.008 0.00729092 0.0287912 0.00704681 0.0119304 0.0271985 0.00704681 0.0130551 0.0297626 0.008 0.0177758 0.0272079 0.008 0.0162444 0.0248638 0.00704681 0.0220117 0.023911 0.008 0.0201153 0.021851 0.00704681 0.0234375 0.0182421 0.00704681 0.0256471 0.0199619 0.008 0.0285829 0.0154683 0.008 0.0261204 0.0141356 0.00704681 0.0307391 0.0105527 0.008 0.0280908 0.00964357 0.00704681 0.0292949 0.00488846 0.00704681</float_array>
          <technique_common>
            <accessor count="304" source="#ID6" stride="3">
              <param name="X" type="float"/>
              <param name="Y" type="float"/>
              <param name="Z" type="float"/>
            </accessor>
          </technique_common>
        </source>
        <source id="ID7">
          <float_array count="912" id="ID8">0 0 1 0 0 1 0 0 1 0 0 1 0 0 1 0 0 1 0 0 1 0 0 1 0 0 1 0 0 1 0 0 1 0 0 1 0 0 1 0 0 1 0 0 1 0 0 1 0 0 1 0 0 1 0 0 1 0 0 1 0 0 1 0 0 1 0 0 1 0 0 1 0 0 1 0 0 1 0 0 1 0 0 1 0 0 1 0 0 1 0 0 1 0 0 1 0 0 1 0 0 1 0 0 1 0 0 1 0 0 1 0 0 1 0 0 1 0 0 1 0 0 1 0 0 1 0 0 1 0 0 1 0 0 1 0 0 1 0 0 1 0 0 1 0 0 1 0 0 1 0 0 1 0 0 1 0 0 1 0 0 1 0 0 1 0 0 1 0 0 1 0 0 1 0 0 1 0 0 1 0 0 1 0 0 1 0 0 1 0 0 1 0 0 1 0 0 1 0 0 1 0 0 1 0 0 1 0 0 1 0 0 1 0 0 1 0 0 1 0 0 1 0 0 1 0 0 1 -0.0825794 0.996584 0 -0.0825794 0.996584 0 0.0825794 0.996584 0 0.986361 -0.164595 0 1 -8.74228e-08 0 1 -8.74228e-08 0 -0.245485 0.9694 0 -0.245485 0.9694 0 -0.401695 0.915773 0 -0.401695 0.915773 0 -0.546948 0.837166 0 -0.546948 0.837166 0 -0.677282 0.735724 0 -0.677282 0.735724 0 -0.789141 0.614213 0 -0.789141 0.614213 0 -0.879474 0.475947 0 -0.879474 0.475947 0 -0.945817 0.324699 0 -0.945817 0.324699 0 -0.986361 0.164595 0 -0.986361 0.164595 0 -1 -1.37149e-11 0 -1 0 0 0.0825792 0.996584 0 0.245485 0.9694 0 0.245485 0.9694 0 0.401695 0.915773 0 0.401695 0.915773 0 0.546948 0.837166 0 0.546948 0.837166 0 0.677282 0.735724 0 0.677282 0.735724 0 0.789141 0.614213 0 0.78914 0.614213 0 0.879474 0.475947 0 0.879474 0.475947 0 0.945817 0.3247 0 0.945817 0.324699 0 0.986361 0.164595 0 0.986361 0.164595 0 0.78914 -0.614213 0 0.879474 -0.475947 0 0.879474 -0.475947 0 0.945817 -0.324699 0 0.945817 -0.324699 0 0.986361 -0.164595 0 0.546948 -0.837167 0 0.546948 -0.837167 0 0.401695 -0.915773 0 0.78914 -0.614213 0 0.677282 -0.735724 0 0.677282 -0.735724 0 0.0825794 -0.996584 0 -0.0825794 -0.996584 0 0.0825794 -0.996584 0 0.245486 -0.9694 0 0.245486 -0.9694 0 0.401695 -0.915773 0 -0.546948 -0.837166 0 -0.401695 -0.915773 0 -0.401695 -0.915773 0 -0.245485 -0.9694 0 -0.0825794 -0.996584 0 -0.245486 -0.9694 0 -0.789141 -0.614213 0 -0.677282 -0.735724 0 -0.78914 -0.614213 0 -0.546948 -0.837166 0 -0.677282 -0.735724 0 -0.879474 -0.475948 0 -0.879474 -0.475947 0 -0.945817 -0.3247 0 -0.945817 -0.324699 0 -0.986361 -0.164595 0 -0.986361 -0.164595 0 0.0825794 -0.996584 0 -0.0825794 -0.996584 -0 0.0825794 -0.996584 0 -0.986361 0.164595 0 -1 8.74228e-08 0 -1 8.74228e-08 0 0.245485 -0.9694 0 0.245485 -0.9694 0 0.401695 -0.915773 0 0.401695 -0.915773 0 0.546948 -0.837166 0 0.546948 -0.837166 0 0.677282 -0.735724 0 0.677282 -0.735724 0 0.789141 -0.614213 0 0.789141 -0.614213 0 0.879474 -0.475947 0 0.879474 -0.475947 0 0.945817 -0.324699 0 0.945817 -0.324699 0 0.986361 -0.164595 0 0.986361 -0.164595 0 1 1.37149e-11 0 1 -2.03021e-27 0 -0.0825792 -0.996584 -0 -0.245485 -0.9694 -0 -0.245485 -0.9694 -0 -0.401695 -0.915773 -0 -0.401695 -0.915773 -0 -0.546948 -0.837166 -0 -0.546948 -0.837166 -0 -0.677282 -0.735724 -0 -0.677282 -0.735724 -0 -0.78914 -0.614213 -0 -0.789141 -0.614213 -0 -0.879474 -0.475947 -0 -0.879474 -0.475947 -0 -0.945817 -0.3247 -0 -0.945817 -0.324699 -0 -0.986361 -0.164595 -0 -0.986361 -0.164595 -0 -0.78914 0.614213 0 -0.879474 0.475947 0 -0.879474 0.475947 0 -0.945817 0.324699 0 -0.986361 0.164595 0 -0.945817 0.324699 0 -0.546948 0.837167 0 -0.401695 0.915773 0 -0.546948 0.837167 0 -0.78914 0.614213 0 -0.677282 0.735724 0 -0.677282 0.735724 0 -0.0825794 0.996584 0 -0.0825794 0.996584 0 0.0825794 0.996584 0 -0.245486 0.9694 0 -0.401695 0.915773 0 -0.245486 0.9694 0 0.546948 0.837166 0 0.401695 0.915773 0 0.401695 0.915773 0 0.245485 0.9694 0 0.245486 0.9694 0 0.0825794 0.996584 0 0.789141 0.614213 0 0.78914 0.614213 0 0.677282 0.735724 0 0.546948 0.837166 0 0.677282 0.735724 0 0.879474 0.475948 0 0.879474 0.475947 0 0.945817 0.324699 0 0.945817 0.3247 0 0.986361 0.164595 0 0.986361 0.164595 0 -0.322264 -2.81732e-08 -0.94665 -0.322264 -2.81732e-08 -0.94665 -0.317869 -0.0530429 -0.94665 0.322264 -2.96734e-12 -0.94665 0.322264 1.37603e-25 -0.94665 0.317869 0.0530429 -0.94665 -0.304803 -0.104639 -0.94665 -0.317869 -0.0530429 -0.94665 -0.304803 -0.104639 -0.94665 -0.283423 -0.153381 -0.94665 -0.283423 -0.153381 -0.94665 -0.254311 -0.197938 -0.94665 -0.218263 -0.237097 -0.94665 -0.254311 -0.197939 -0.94665 -0.218263 -0.237097 -0.94665 -0.176262 -0.269788 -0.94665 -0.176262 -0.269788 -0.94665 -0.129452 -0.295121 -0.94665 -0.0791111 -0.312403 -0.94665 -0.129452 -0.295121 -0.94665 -0.0791111 -0.312403 -0.94665 -0.0266123 -0.321163 -0.94665 -0.0266123 -0.321163 -0.94665 0.0266124 -0.321163 -0.94665 0.0266124 -0.321163 -0.94665 0.0791111 -0.312403 -0.94665 0.0791111 -0.312403 -0.94665 0.129452 -0.295121 -0.94665 0.129452 -0.295121 -0.94665 0.176262 -0.269788 -0.94665 0.176262 -0.269788 -0.94665 0.218263 -0.237097 -0.94665 0.218263 -0.237097 -0.94665 0.254311 -0.197939 -0.94665 0.254311 -0.197938 -0.94665 0.283423 -0.153381 -0.94665 0.283423 -0.153381 -0.94665 0.304803 -0.104639 -0.94665 0.304803 -0.104639 -0.94665 0.317869 -0.0530429 -0.94665 0.317869 -0.0530429 -0.94665 -0.317869 0.0530429 -0.94665 -0.317869 0.0530429 -0.94665 -0.304803 0.104639 -0.94665 -0.304803 0.104639 -0.94665 -0.283423 0.153381 -0.94665 -0.254311 0.197939 -0.94665 -0.283423 0.153381 -0.94665 -0.254311 0.197939 -0.94665 -0.218263 0.237097 -0.94665 -0.218263 0.237097 -0.94665 -0.176262 0.269788 -0.94665 -0.129452 0.295121 -0.94665 -0.176262 0.269788 -0.94665 -0.129452 0.295121 -0.94665 -0.0791111 0.312403 -0.94665 -0.0791111 0.312403 -0.94665 -0.0266124 0.321163 -0.94665 -0.0266124 0.321163 -0.94665 0.0266123 0.321163 -0.94665 0.0266123 0.321163 -0.94665 0.0791111 0.312403 -0.94665 0.0791111 0.312403 -0.94665 0.129452 0.295121 -0.94665 0.129452 0.295121 -0.94665 0.176262 0.269788 -0.94665 0.176262 0.269788 -0.94665 0.218263 0.237097 -0.94665 0.218263 0.237097 -0.94665 0.254311 0.197939 -0.94665 0.254311 0.197939 -0.94665 0.283423 0.153381 -0.94665 0.283423 0.153381 -0.94665 0.304803 0.104639 -0.94665 0.304803 0.104639 -0.94665 0.317869 0.0530429 -0.94665</float_array>
          <technique_common>
            <accessor count="304" source="#ID8" stride="3">
              <param name="X" type="float"/>
              <param name="Y" type="float"/>
              <param name="Z" type="float"/>
            </accessor>
          </technique_common>
        </source>
        <vertices id="ID9">
          <input semantic="POSITION" source="#ID5"/>
          <input semantic="NORMAL" source="#ID7"/>
        </vertices>
        <triangles count="304" material="ID10">
          <input offset="0" semantic="VERTEX" source="#ID9"/>
          <p>0 1 2 3 4 5 6 7 3 8 5 9 10 11 6 12 9 13 14 15 10 16 17 18 14 19 20 21 22 23 19 1 24 25 26 27 28 29 30 31 32 33 34 35 36 37 38 39 40 41 42 43 44 45 46 47 48 49 50 46 42 51 52 52 48 53 54 55 49 56 40 57 54 43 58 59 60 44 61 57 34 62 63 35 64 59 39 37 65 66 31 67 62 32 68 69 17 13 18 27 70 25 71 68 28 30 72 2 27 73 70 73 74 75 26 66 65 25 66 26 65 37 39 38 64 39 64 60 59 60 45 44 45 58 43 58 55 54 55 50 49 50 47 46 47 53 48 53 42 52 51 42 41 41 40 56 56 57 61 61 34 36 36 35 63 63 62 67 67 31 33 33 32 69 69 68 71 71 28 30 29 72 30 72 0 2 0 24 1 24 20 19 20 15 14 15 11 10 11 7 6 7 4 3 4 9 5 8 9 12 12 13 17 18 21 16 23 22 74 16 21 23 73 75 70 74 22 75 76 77 78 79 80 81 77 82 83 82 77 76 84 83 85 82 85 83 86 87 84 84 85 86 87 88 89 88 87 86 90 89 91 88 91 89 92 93 90 90 91 92 93 94 95 94 93 92 96 95 97 94 97 95 98 99 96 96 97 98 76 78 100 101 102 100 100 78 101 102 103 104 103 102 101 105 104 106 103 106 104 107 108 105 105 106 107 108 109 110 109 108 107 111 110 112 109 112 110 113 114 111 111 112 113 114 115 116 115 114 113 115 81 116 116 81 80 117 118 119 120 121 122 123 124 125 126 127 128 129 130 131 132 133 134 135 136 137 138 139 140 141 142 143 144 145 142 146 147 141 141 143 146 147 148 149 148 147 146 150 149 151 148 151 149 99 98 150 150 151 99 135 145 144 142 145 143 136 138 137 144 136 135 140 139 130 137 138 140 129 131 133 130 139 131 125 132 134 132 129 133 128 124 123 123 125 134 126 117 127 128 127 124 118 121 119 126 118 117 120 122 79 119 121 120 80 79 122 152 153 154 155 156 157 154 158 159 159 152 154 160 161 158 159 158 161 162 160 163 160 162 161 163 164 165 165 162 163 166 167 164 165 164 167 168 166 169 166 168 167 169 170 171 171 168 169 172 173 170 171 170 173 174 172 175 172 174 173 152 176 153 177 176 178 176 177 153 178 179 180 180 177 178 181 182 179 180 179 182 183 181 184 181 183 182 184 185 186 186 183 184 187 188 185 186 185 188 189 187 190 187 189 188 190 191 192 192 189 190 192 191 156 191 157 156 193 194 195 196 197 198 199 200 201 202 203 204 205 206 207 208 209 210 211 212 213 214 215 216 217 218 219 220 219 221 222 217 223 217 222 218 223 224 225 225 222 223 226 227 224 225 224 227 175 226 174 226 175 227 211 220 221 219 218 221 213 212 214 220 211 213 215 207 216 212 215 214 205 210 206 207 206 216 200 209 208 208 210 205 203 199 201 199 209 200 202 204 193 203 201 204 195 194 198 202 193 195 196 155 197 194 196 198 157 197 155 228 229 230 231 232 233 234 230 235 229 235 230 236 237 234 234 235 236 237 238 239 238 237 236 240 239 241 238 241 239 242 243 240 240 241 242 243 244 245 244 243 242 246 245 247 244 247 245 248 249 246 246 247 248 250 249 248 251 250 252 250 251 249 253 254 252 251 252 254 253 255 256 256 254 253 257 255 258 255 257 256 259 260 258 257 258 260 259 261 262 262 260 259 263 261 264 261 263 262 265 266 264 263 264 266 265 267 268 268 266 265 267 231 268 231 267 232 229 228 269 270 271 269 269 228 270 271 272 273 272 271 270 274 273 275 272 275 273 276 277 274 274 275 276 277 278 279 278 277 276 280 279 281 278 281 279 282 283 280 280 281 282 283 284 285 284 283 282 284 286 285 287 288 286 285 286 288 287 289 290 290 288 287 291 289 292 289 291 290 293 294 292 291 292 294 293 295 296 296 294 293 297 295 298 295 297 296 299 300 298 297 298 300 299 301 302 302 300 299 303 301 233 301 303 302 303 233 232</p>
        </triangles>
      </mesh>
    </geometry>
    <geometry id="ID12">
      <mesh>
        <source id="ID13">
          <float_array count="1560" id="ID14">-0.00349297 -0.00605 0.012 0.00349297 -0.00605 0.0016 0.00349297 -0.00605 0.012 -0.00349297 -0.00605 0.0016 -0.00698594 1.33227e-18 0.012 -0.00349297 -0.00605 0.0016 -0.00349297 -0.00605 0.012 -0.00698594 1.33227e-18 0.0016 -0.00349297 0.00605 0.012 -0.00698594 1.33227e-18 0.0016 -0.00698594 1.33227e-18 0.012 -0.00349297 0.00605 0.0016 0.00349297 0.00605 0.012 -0.00349297 0.00605 0.0016 -0.00349297 0.00605 0.012 0.00349297 0.00605 0.0016 0.00698594 0 0.012 0.00349297 0.00605 0.0016 0.00349297 0.00605 0.012 0.00698594 -4.44089e-19 0.0016 0.00349297 -0.00605 0.012 0.00698594 -4.44089e-19 0.0016 0.00698594 0 0.012 0.00349297 -0.00605 0.0016 0.00742739 -0.00508271 0 0.00660802 -0.00611016 0 0.00660802 -0.00611016 0.012 0.00564777 -0.00700733 0 0.00564777 -0.00700733 0.012 0.0045671 -0.0077551 0.012 0.0045671 -0.0077551 0 0.00742739 -0.00508271 0.012 0.00808839 -0.00394689 0.012 0.00808839 -0.00394689 0 0.00857694 -0.00272692 0 0.00857694 -0.00272692 0.012 0.00857694 -0.00272692 0.012 0.0287799 -0.00733812 0.00704705 0.00857694 -0.00272692 0 0.0287792 -0.00733796 0.018 0.029113 -0.00587557 0.018 0.0287799 -0.00733812 0.00704705 0.0287792 -0.00733796 0.018 0.0291131 -0.00587537 0.00704681 0.00891072 -0.00126453 0.012 0.0291131 -0.00587537 0.00704681 0.029113 -0.00587557 0.018 0.00891072 -0.00126453 0 0.00860472 0.00263795 0 0.00889715 0.00135674 0 0.00889715 0.00135674 0.012 0.00899988 4.66032e-05 0 0.00899988 4.66032e-05 0.012 0.00891072 -0.00126453 0.012 0.00891072 -0.00126453 0 0.00860472 0.00263795 0.012 0.00812883 0.00386291 0.012 0.00812883 0.00386291 0 0.00747963 0.00500552 -1.42109e-17 0.00747963 0.00500552 0.012 0.00747963 0.00500552 0.012 0.0236813 0.0179259 0.00704711 0.00747963 0.00500552 -1.42109e-17 0.023681 0.0179256 0.0180001 0.0227454 0.0190981 0.018 0.0236813 0.0179259 0.00704711 0.023681 0.0179256 0.0180001 0.0227452 0.0190983 0.00704681 0.00654439 0.00617826 0.012 0.0227452 0.0190983 0.00704681 0.0227454 0.0190981 0.018 0.00654439 0.00617826 2.84217e-17 0.00330253 0.00837218 0 0.00448654 0.00780198 0 0.00448654 0.00780198 0.012 0.0055749 0.00706545 0 0.0055749 0.00706545 0.012 0.00654439 0.00617826 0.012 0.00654439 0.00617826 2.84217e-17 0.00330253 0.00837218 0.012 0.0020481 0.00876386 0.012 0.0020481 0.00876386 0 0.00075 0.0089687 0 0.00075 0.0089687 0.012 0.00075 0.0296912 0.00704705 0.00075 0.0089687 0.012 0.00075 0.0296905 0.018 0.00075 0.0089687 0 -0.00075 0.0296905 0.00704681 0.00075 0.0296912 0.00704705 0.00075 0.0296905 0.018 -0.00075 0.0296905 0.018 -0.00075 0.0089687 0.012 -0.00075 0.0296905 0.00704681 -0.00075 0.0296905 0.018 -0.00075 0.0089687 0 -0.00448654 0.00780198 0 -0.00330253 0.00837218 0 -0.00330253 0.00837218 0.012 -0.0020481 0.00876386 0 -0.0020481 0.00876386 0.012 -0.00075 0.0089687 0.012 -0.00075 0.0089687 0 -0.00448654 0.00780198 0.012 -0.0055749 0.00706545 0.012 -0.0055749 0.00706545 0 -0.00654439 0.00617826 0 -0.00654439 0.00617826 0.012 -0.00654439 0.00617826 0.012 -0.0227461 0.0190987 0.00704711 -0.00654439 0.00617826 0 -0.0227454 0.0190981 0.018 -0.0236806 0.0179254 0.018 -0.0227461 0.0190987 0.00704711 -0.0227454 0.0190981 0.018 -0.0236808 0.0179252 0.00704681 -0.00747963 0.00500552 0.012 -0.0236808 0.0179252 0.00704681 -0.0236806 0.0179254 0.018 -0.00747963 0.00500552 2.84217e-17 -0.00889715 0.00135674 0 -0.00860472 0.00263795 0 -0.00860472 0.00263795 0.012 -0.00812883 0.00386291 0 -0.00812883 0.00386291 0.012 -0.00747963 0.00500552 0.012 -0.00747963 0.00500552 2.84217e-17 -0.00889715 0.00135674 0.012 -0.00899988 4.66032e-05 0.012 -0.00899988 4.66032e-05 0 -0.00891072 -0.00126453 0 -0.00891072 -0.00126453 0.012 -0.00891072 -0.00126453 0.012 -0.0291137 -0.00587573 0.00704705 -0.00891072 -0.00126453 0 -0.029113 -0.00587557 0.018 -0.0287792 -0.00733796 0.018 -0.0291137 -0.00587573 0.00704705 -0.029113 -0.00587557 0.018 -0.0287792 -0.00733816 0.00704681 -0.00857694 -0.00272692 0.012 -0.0287792 -0.00733816 0.00704681 -0.0287792 -0.00733796 0.018 -0.00857694 -0.00272692 -4.26326e-17 -0.00660802 -0.00611016 0 -0.00742739 -0.00508271 0 -0.00742739 -0.00508271 0.012 -0.00808839 -0.00394689 0 -0.00808839 -0.00394689 0.012 -0.00857694 -0.00272692 0.012 -0.00857694 -0.00272692 -4.26326e-17 -0.00660802 -0.00611016 0.012 -0.00564777 -0.00700733 0.012 -0.00564777 -0.00700733 0 -0.0045671 -0.0077551 0 -0.0045671 -0.0077551 0.012 -0.0045671 -0.0077551 0.012 -0.0135583 -0.0264255 0.00704707 -0.0045671 -0.0077551 0 -0.013558 -0.0264248 0.018 -0.0122065 -0.0270757 0.018 -0.0135583 -0.0264255 0.00704707 -0.013558 -0.0264248 0.018 -0.0122063 -0.0270758 0.00704681 -0.00321564 -0.00840593 0.012 -0.0122063 -0.0270758 0.00704681 -0.0122065 -0.0270757 0.018 -0.00321564 -0.00840593 0 0.000657079 -0.00897598 0 -0.000657079 -0.00897598 0 -0.000657079 -0.00897598 0.012 -0.00195723 -0.0087846 0 -0.00195723 -0.0087846 0.012 -0.00321564 -0.00840593 0.012 -0.00321564 -0.00840593 0 0.000657079 -0.00897598 0.012 0.00195723 -0.0087846 0.012 0.00195723 -0.0087846 0 0.00321564 -0.00840593 0 0.00321564 -0.00840593 0.012 0.00321564 -0.00840593 0.012 0.0122068 -0.0270764 0.00704707 0.00321564 -0.00840593 0 0.0122065 -0.0270757 0.018 0.013558 -0.0264248 0.018 0.0122068 -0.0270764 0.00704707 0.0122065 -0.0270757 0.018 0.0135582 -0.0264247 0.00704681 0.0045671 -0.0077551 0.012 0.0135582 -0.0264247 0.00704681 0.013558 -0.0264248 0.018 0.0045671 -0.0077551 0 -0.00114037 0.00185208 0 -0.0055749 0.00706545 0 -0.00143697 0.00163271 0 0.00075 0.0089687 0 -1.44731e-18 0.009 -1.33227e-18 0.000276264 0.00215738 0 -9.23096e-05 0.00217304 0 0.0020481 0.00876386 0 0.00063689 0.00207966 0 0.00448654 0.00780198 0 0.00129333 0.00174869 0 0.0055749 0.00706545 0 -0.00075 0.0089687 0 -0.000458227 0.00212618 0 -0.00169223 0.00136638 0 -0.00654439 0.00617826 0 -0.00703648 0.00561141 -1.33227e-18 0.00180201 0.00121795 0 0.00812883 0.00386291 0 0.00747963 0.00500552 -1.42109e-17 -0.00189881 0.00106074 0 -0.00747963 0.00500552 2.84217e-17 -0.00812883 0.00386291 0 0.00180201 -0.00121795 0 0.00808839 -0.00394689 0 0.00198192 -0.000895885 0 -0.00860472 0.00263795 0 -0.00205076 0.000724579 0 -0.00889715 0.00135674 0 -0.00899988 4.66032e-05 0 -0.002175 0 0 0.0045671 -0.0077551 0 0.00129333 -0.00174869 0 0.000979193 -0.00194211 0 0.00321564 -0.00840593 0 0.00390495 -0.00810872 -1.33227e-18 -9.23096e-05 -0.00217304 0 -0.000458227 -0.00212618 0 -0.000657079 -0.00897598 0 -0.00189881 -0.00106074 0 -0.00808839 -0.00394689 0 -0.00742739 -0.00508271 0 -0.00195723 -0.0087846 0 -0.000810963 -0.00201816 0 -0.00114037 -0.00185208 0 -0.00390495 -0.00810872 -1.55431e-18 -0.00143697 -0.00163271 0 -0.00564777 -0.00700733 0 -0.00169223 -0.00136638 0 -0.00660802 -0.00611016 0 0.000657079 -0.00897598 0 0.000276264 -0.00215738 0 0.00195723 -0.0087846 0 0.00063689 -0.00207966 0 -0.00214371 -0.000367577 0 -0.00877435 -0.00200269 -1.33227e-18 -0.00205076 -0.000724579 0 -0.00857694 -0.00272692 -4.26326e-17 -0.00891072 -0.00126453 0 0.00660802 -0.00611016 0 0.00157025 -0.00150497 0 0.00564777 -0.00700733 0 0.00742739 -0.00508271 0 -0.00214371 0.000367577 0 0.00889715 0.00135674 0 0.00216716 0.000184453 0 0.00899988 4.66032e-05 0 0.00216716 -0.000184453 0 0.00891072 -0.00126453 0 0.00860472 0.00263795 0 0.00210482 0.000548052 0 0.00198192 0.000895885 0 -0.00448654 0.00780198 0 0.00703648 0.00561141 -8.88178e-19 0.00157025 0.00150497 0 -0.000810963 0.00201816 0 -0.00330253 0.00837218 0 0.00654439 0.00617826 2.84217e-17 0.00330253 0.00837218 0 0.000979193 0.00194211 0 -0.0020481 0.00876386 0 0.00857694 -0.00272692 0 0.00210482 -0.000548052 0 0.00877435 -0.00200269 -1.33227e-18 -0.00321564 -0.00840593 0 -0.0045671 -0.0077551 0 0.000979193 -0.00194211 0.0016 0.00129333 -0.00174869 0.0016 0.00349297 -0.00605 0.0016 0.00210482 0.000548052 0.0016 0.00198192 0.000895885 0.0016 0.00698594 -4.44089e-19 0.0016 0.00216716 0.000184453 0.0016 0.00216716 -0.000184453 0.0016 -0.00349297 -0.00605 0.0016 -0.00114037 -0.00185208 0.0016 -0.000810963 -0.00201816 0.0016 -0.00114037 0.00185208 0.0016 -0.00349297 0.00605 0.0016 -0.000810963 0.00201816 0.0016 -0.00698594 1.33227e-18 0.0016 -0.002175 0 0.0016 -0.00214371 -0.000367577 0.0016 -0.00205076 -0.000724579 0.0016 -0.00189881 -0.00106074 0.0016 -0.00169223 -0.00136638 0.0016 -0.00143697 -0.00163271 0.0016 -0.000458227 -0.00212618 0.0016 -9.23096e-05 -0.00217304 0.0016 0.000276264 -0.00215738 0.0016 0.00063689 -0.00207966 0.0016 0.00157025 -0.00150497 0.0016 0.00180201 -0.00121795 0.0016 0.00198192 -0.000895885 0.0016 0.00210482 -0.000548052 0.0016 0.000979193 0.00194211 0.0016 0.00349297 0.00605 0.0016 0.00129333 0.00174869 0.0016 0.00180201 0.00121795 0.0016 0.00157025 0.00150497 0.0016 0.00063689 0.00207966 0.0016 0.000276264 0.00215738 0.0016 -9.23096e-05 0.00217304 0.0016 -0.000458227 0.00212618 0.0016 -0.00143697 0.00163271 0.0016 -0.00169223 0.00136638 0.0016 -0.00205076 0.000724579 0.0016 -0.00189881 0.00106074 0.0016 -0.00214371 0.000367577 0.0016 -0.00205076 -0.000724579 0 -0.00205076 -0.000724579 0.0016 -0.00214371 -0.000367577 0.0016 -0.002175 0 0.0016 -0.002175 0 0 -0.00214371 -0.000367577 0 -0.00169223 -0.00136638 0.0016 -0.00143697 -0.00163271 0 -0.00143697 -0.00163271 0.0016 -0.00169223 -0.00136638 0 -0.00189881 -0.00106074 0.0016 -0.00189881 -0.00106074 0 -0.000458227 -0.00212618 0 -0.000458227 -0.00212618 0.0016 -0.000810963 -0.00201816 0.0016 -0.000810963 -0.00201816 0 -0.00114037 -0.00185208 0.0016 -0.00114037 -0.00185208 0 0.00063689 -0.00207966 0.0016 0.000276264 -0.00215738 0.0016 0.00063689 -0.00207966 0 -9.23096e-05 -0.00217304 0.0016 -9.23096e-05 -0.00217304 0 0.000276264 -0.00215738 0 0.00129333 -0.00174869 0.0016 0.00157025 -0.00150497 0 0.00157025 -0.00150497 0.0016 0.000979193 -0.00194211 0 0.00129333 -0.00174869 0 0.000979193 -0.00194211 0.0016 0.00210482 -0.000548052 0 0.00210482 -0.000548052 0.0016 0.00198192 -0.000895885 0.0016 0.00198192 -0.000895885 0 0.00180201 -0.00121795 0.0016 0.00180201 -0.00121795 0 0.00210482 0.000548052 0.0016 0.00216716 0.000184453 0.0016 0.00210482 0.000548052 0 0.00216716 -0.000184453 0.0016 0.00216716 -0.000184453 0 0.00216716 0.000184453 0 0.00180201 0.00121795 0.0016 0.00157025 0.00150497 0 0.00157025 0.00150497 0.0016 0.00198192 0.000895885 0 0.00180201 0.00121795 0 0.00198192 0.000895885 0.0016 0.00063689 0.00207966 0 0.00063689 0.00207966 0.0016 0.000979193 0.00194211 0.0016 0.000979193 0.00194211 0 0.00129333 0.00174869 0.0016 0.00129333 0.00174869 0 -0.000458227 0.00212618 0 -9.23096e-05 0.00217304 0.0016 -9.23096e-05 0.00217304 0 0.000276264 0.00215738 0.0016 0.000276264 0.00215738 0 -0.000810963 0.00201816 0 -0.000458227 0.00212618 0.0016 -0.000810963 0.00201816 0.0016 -0.00114037 0.00185208 0 -0.00143697 0.00163271 0 -0.00114037 0.00185208 0.0016 -0.00169223 0.00136638 0 -0.00143697 0.00163271 0.0016 -0.00169223 0.00136638 0.0016 -0.00189881 0.00106074 0 -0.00205076 0.000724579 0 -0.00189881 0.00106074 0.0016 -0.00214371 0.000367577 0 -0.00205076 0.000724579 0.0016 -0.00214371 0.000367577 0.0016 0.0236813 0.0179259 0.00704711 0.0227452 0.0190983 0.00704681 0.00703648 0.00561141 -8.88178e-19 0.00654439 0.00617826 2.84217e-17 0.00747963 0.00500552 -1.42109e-17 -0.00075 0.0296905 0.00704681 -0.00075 0.0089687 0 -1.44731e-18 0.009 -1.33227e-18 0.00075 0.0296912 0.00704705 0.00075 0.0089687 0 -0.0227461 0.0190987 0.00704711 -0.0236808 0.0179252 0.00704681 -0.00703648 0.00561141 -1.33227e-18 -0.00747963 0.00500552 2.84217e-17 -0.00654439 0.00617826 0 -0.0291137 -0.00587573 0.00704705 -0.0287792 -0.00733816 0.00704681 -0.00877435 -0.00200269 -1.33227e-18 -0.00857694 -0.00272692 -4.26326e-17 -0.00891072 -0.00126453 0 -0.0135583 -0.0264255 0.00704707 -0.0122063 -0.0270758 0.00704681 -0.00390495 -0.00810872 -1.55431e-18 -0.00321564 -0.00840593 0 -0.0045671 -0.0077551 0 0.0135582 -0.0264247 0.00704681 0.0045671 -0.0077551 0 0.00390495 -0.00810872 -1.33227e-18 0.0122068 -0.0270764 0.00704707 0.00321564 -0.00840593 0 0.0291131 -0.00587537 0.00704681 0.00891072 -0.00126453 0 0.00877435 -0.00200269 -1.33227e-18 0.0287799 -0.00733812 0.00704705 0.00857694 -0.00272692 0 0.000657079 -0.00897598 0.012 -0.000657079 -0.00897598 0.012 0.00349297 -0.00605 0.012 0.00390495 -0.00810872 0.012 0.0045671 -0.0077551 0.012 0.00564777 -0.00700733 0.012 0.00321564 -0.00840593 0.012 -0.00899988 4.66032e-05 0.012 -0.00889715 0.00135674 0.012 -0.00698594 1.33227e-18 0.012 0.00808839 -0.00394689 0.012 0.00742739 -0.00508271 0.012 0.00195723 -0.0087846 0.012 0.00857694 -0.00272692 0.012 0.00698594 0 0.012 0.00877435 -0.00200269 0.012 -0.00349297 -0.00605 0.012 0.00891072 -0.00126453 0.012 0.00899988 4.66032e-05 0.012 -0.00195723 -0.0087846 0.012 0.00889715 0.00135674 0.012 -0.00321564 -0.00840593 0.012 -0.00390495 -0.00810872 0.012 -0.0045671 -0.0077551 0.012 -0.00660802 -0.00611016 0.012 -0.00742739 -0.00508271 0.012 -0.00564777 -0.00700733 0.012 -0.00877435 -0.00200269 0.012 -0.00857694 -0.00272692 0.012 0.00654439 0.00617826 0.012 0.00349297 0.00605 0.012 0.0055749 0.00706545 0.012 -0.00349297 0.00605 0.012 -3.44571e-18 0.009 0.012 -0.00075 0.0089687 0.012 -0.0020481 0.00876386 0.012 -0.00448654 0.00780198 0.012 -0.00330253 0.00837218 0.012 -0.00654439 0.00617826 0.012 -0.0055749 0.00706545 0.012 -0.00703648 0.00561141 0.012 -0.00747963 0.00500552 0.012 -0.00812883 0.00386291 0.012 0.00075 0.0089687 0.012 -0.00860472 0.00263795 0.012 -0.00891072 -0.00126453 0.012 0.00448654 0.00780198 0.012 0.00330253 0.00837218 0.012 -0.00808839 -0.00394689 0.012 0.00747963 0.00500552 0.012 0.00703648 0.00561141 0.012 0.00812883 0.00386291 0.012 0.00660802 -0.00611016 0.012 0.00860472 0.00263795 0.012 0.0020481 0.00876386 0.012 0.029113 -0.00587557 0.018 0.00877435 -0.00200269 0.012 0.00891072 -0.00126453 0.012 0.00857694 -0.00272692 0.012 0.0287792 -0.00733796 0.018 0.0227454 0.0190981 0.018 0.00703648 0.00561141 0.012 0.00654439 0.00617826 0.012 0.00747963 0.00500552 0.012 0.023681 0.0179256 0.0180001 -0.00075 0.0296905 0.018 -3.44571e-18 0.009 0.012 -0.00075 0.0089687 0.012 0.00075 0.0089687 0.012 0.00075 0.0296905 0.018 -0.0236806 0.0179254 0.018 -0.00703648 0.00561141 0.012 -0.00747963 0.00500552 0.012 -0.00654439 0.00617826 0.012 -0.0227454 0.0190981 0.018 -0.0287792 -0.00733796 0.018 -0.00877435 -0.00200269 0.012 -0.00857694 -0.00272692 0.012 -0.00891072 -0.00126453 0.012 -0.029113 -0.00587557 0.018 -0.0122065 -0.0270757 0.018 -0.00390495 -0.00810872 0.012 -0.00321564 -0.00840593 0.012 -0.0045671 -0.0077551 0.012 -0.013558 -0.0264248 0.018 0.013558 -0.0264248 0.018 0.00390495 -0.00810872 0.012 0.0045671 -0.0077551 0.012 0.00321564 -0.00840593 0.012 0.0122065 -0.0270757 0.018</float_array>
          <technique_common>
            <accessor count="520" source="#ID14" stride="3">
              <param name="X" type="float"/>
              <param name="Y" type="float"/>
              <param name="Z" type="float"/>
            </accessor>
          </technique_common>
        </source>
        <source id="ID15">
          <float_array count="1560" id="ID16">1.24158e-16 1 0 1.24158e-16 1 0 1.24158e-16 1 0 1.24158e-16 1 0 0.866025 0.5 0 0.866025 0.5 0 0.866025 0.5 0 0.866025 0.5 0 0.866025 -0.5 0 0.866025 -0.5 0 0.866025 -0.5 0 0.866025 -0.5 0 -1.24158e-16 -1 -0 -1.24158e-16 -1 -0 -1.24158e-16 -1 -0 -1.24158e-16 -1 -0 -0.866025 -0.5 -0 -0.866025 -0.5 -0 -0.866025 -0.5 -0 -0.866025 -0.5 -0 -0.866025 0.5 0 -0.866025 0.5 0 -0.866025 0.5 0 -0.866025 0.5 0 0.825265 -0.564745 0 0.734225 -0.678906 0 0.734225 -0.678906 0 0.62753 -0.778592 0 0.62753 -0.778592 0 0.507455 -0.861678 0 0.507455 -0.861678 0 0.825265 -0.564745 0 0.89871 -0.438543 0 0.89871 -0.438543 0 0.952993 -0.302991 0 0.952993 -0.302991 0 -0.222521 -0.974928 -0 -0.222521 -0.974928 -0 -0.222521 -0.974928 -0 -0.222521 -0.974928 -0 0.974928 -0.222521 0 0.974928 -0.222521 0 0.974928 -0.222521 0 0.974928 -0.222521 0 0.222521 0.974928 0 0.222521 0.974928 0 0.222521 0.974928 0 0.222521 0.974928 0 0.95608 0.293105 0 0.988572 0.150749 0 0.988572 0.150749 0 0.999987 0.00517819 0 0.999987 0.00517819 0 0.99008 -0.140503 0 0.99008 -0.140503 0 0.95608 0.293105 0 0.903203 0.429213 0 0.903203 0.429213 0 0.83107 0.556169 0 0.83107 0.556169 0 0.62349 -0.781832 0 0.62349 -0.781832 0 0.62349 -0.781832 0 0.62349 -0.781832 0 0.781832 0.62349 0 0.781832 0.62349 0 0.781832 0.62349 0 0.781832 0.62349 0 -0.62349 0.781832 0 -0.62349 0.781832 0 -0.62349 0.781832 0 -0.62349 0.781832 0 0.366947 0.930242 0 0.498504 0.866887 0 0.498504 0.866887 0 0.619433 0.78505 0 0.619433 0.78505 0 0.727154 0.686474 0 0.727154 0.686474 0 0.366947 0.930242 0 0.227566 0.973763 0 0.227566 0.973763 0 0.0833333 0.996522 0 0.0833333 0.996522 0 1 0 0 1 0 0 1 0 0 1 0 0 0 1 0 0 1 0 0 1 0 0 1 0 -1 0 0 -1 0 0 -1 0 0 -1 0 0 -0.498504 0.866887 0 -0.366947 0.930242 0 -0.366947 0.930242 0 -0.227566 0.973763 0 -0.227566 0.973763 0 -0.0833334 0.996522 0 -0.0833334 0.996522 0 -0.498504 0.866887 0 -0.619433 0.785049 0 -0.619433 0.785049 0 -0.727155 0.686474 0 -0.727155 0.686474 0 0.62349 0.781832 0 0.62349 0.781832 0 0.62349 0.781832 0 0.62349 0.781832 0 -0.781832 0.62349 0 -0.781832 0.62349 0 -0.781832 0.62349 0 -0.781832 0.62349 0 -0.62349 -0.781832 0 -0.62349 -0.781832 0 -0.62349 -0.781832 0 -0.62349 -0.781832 0 -0.988572 0.150749 0 -0.95608 0.293105 0 -0.95608 0.293105 0 -0.903204 0.429213 0 -0.903204 0.429213 0 -0.83107 0.556168 0 -0.83107 0.556168 0 -0.988572 0.150749 0 -0.999987 0.00517801 0 -0.999987 0.00517801 0 -0.99008 -0.140503 0 -0.99008 -0.140503 0 -0.222521 0.974928 0 -0.222521 0.974928 0 -0.222521 0.974928 0 -0.222521 0.974928 0 -0.974928 -0.222521 -0 -0.974928 -0.222521 -0 -0.974928 -0.222521 -0 -0.974928 -0.222521 -0 0.222521 -0.974928 0 0.222521 -0.974928 0 0.222521 -0.974928 0 0.222521 -0.974928 0 -0.734225 -0.678906 0 -0.825265 -0.564745 0 -0.825265 -0.564745 0 -0.89871 -0.438543 0 -0.89871 -0.438543 0 -0.952993 -0.302991 0 -0.952993 -0.302991 0 -0.734225 -0.678906 0 -0.62753 -0.778593 0 -0.62753 -0.778593 0 -0.507455 -0.861678 0 -0.507455 -0.861678 0 -0.900969 0.433884 0 -0.900969 0.433884 0 -0.900969 0.433884 0 -0.900969 0.433884 0 -0.433884 -0.900969 -0 -0.433884 -0.900969 -0 -0.433884 -0.900969 -0 -0.433884 -0.900969 -0 0.900969 -0.433884 0 0.900969 -0.433884 0 0.900969 -0.433884 0 0.900969 -0.433884 0 0.0730087 -0.997331 0 -0.0730088 -0.997331 0 -0.0730088 -0.997331 0 -0.21747 -0.976067 0 -0.21747 -0.976067 0 -0.357294 -0.933992 0 -0.357294 -0.933992 0 0.0730087 -0.997331 0 0.21747 -0.976067 0 0.21747 -0.976067 0 0.357294 -0.933992 0 0.357294 -0.933992 0 -0.900969 -0.433884 -0 -0.900969 -0.433884 -0 -0.900969 -0.433884 -0 -0.900969 -0.433884 -0 0.433884 -0.900969 0 0.433884 -0.900969 0 0.433884 -0.900969 0 0.433884 -0.900969 0 0.900969 0.433884 0 0.900969 0.433884 0 0.900969 0.433884 0 0.900969 0.433884 0 -0 -0 -1 -0 -0 -1 -0 -0 -1 -0 -0 -1 -0 -0 -1 -0 -0 -1 -0 -0 -1 -0 -0 -1 -0 -0 -1 -0 -0 -1 -0 -0 -1 -0 -0 -1 -0 -0 -1 -0 -0 -1 -0 -0 -1 -0 -0 -1 -0 -0 -1 -0 -0 -1 -0 -0 -1 -0 -0 -1 -0 -0 -1 -0 -0 -1 -0 -0 -1 -0 -0 -1 -0 -0 -1 -0 -0 -1 -0 -0 -1 -0 -0 -1 -0 -0 -1 -0 -0 -1 -0 -0 -1 -0 -0 -1 -0 -0 -1 -0 -0 -1 -0 -0 -1 -0 -0 -1 -0 -0 -1 -0 -0 -1 -0 -0 -1 -0 -0 -1 -0 -0 -1 -0 -0 -1 -0 -0 -1 -0 -0 -1 -0 -0 -1 -0 -0 -1 -0 -0 -1 -0 -0 -1 -0 -0 -1 -0 -0 -1 -0 -0 -1 -0 -0 -1 -0 -0 -1 -0 -0 -1 -0 -0 -1 -0 -0 -1 -0 -0 -1 -0 -0 -1 -0 -0 -1 -0 -0 -1 -0 -0 -1 -0 -0 -1 -0 -0 -1 -0 -0 -1 -0 -0 -1 -0 -0 -1 -0 -0 -1 -0 -0 -1 -0 -0 -1 -0 -0 -1 -0 -0 -1 -0 -0 -1 -0 -0 -1 -0 -0 -1 -0 -0 -1 -0 -0 -1 -0 -0 -1 -0 -0 -1 -0 -0 -1 -0 -0 -1 -0 -0 -1 -0 -0 -1 -0 -0 -1 -0 -0 -1 -0 -0 -1 -0 -0 -1 0 0 1 0 0 1 0 0 1 0 0 1 0 0 1 0 0 1 0 0 1 0 0 1 0 0 1 0 0 1 0 0 1 0 0 1 0 0 1 0 0 1 0 0 1 0 0 1 0 0 1 0 0 1 0 0 1 0 0 1 0 0 1 0 0 1 0 0 1 0 0 1 0 0 1 0 0 1 0 0 1 0 0 1 0 0 1 0 0 1 0 0 1 0 0 1 0 0 1 0 0 1 0 0 1 0 0 1 0 0 1 0 0 1 0 0 1 0 0 1 0 0 1 0 0 1 0 0 1 0.942877 0.33314 0 0.942877 0.33314 0 0.985616 0.169001 0 1 -1.74846e-07 0 1 3.01992e-07 0 0.985616 0.169001 0 0.778036 0.62822 0 0.660675 0.750672 0 0.660675 0.750672 0 0.778036 0.62822 0 0.873014 0.487695 0 0.873014 0.487695 0 0.210679 0.977555 0 0.210679 0.977555 0 0.372856 0.927889 0 0.372857 0.927889 0 0.524307 0.851529 0 0.524307 0.851529 0 -0.292823 0.956167 0 -0.127018 0.9919 0 -0.292823 0.956167 0 0.0424415 0.999099 0 0.042441 0.999099 0 -0.127018 0.9919 0 -0.594633 0.803997 0 -0.721956 0.691939 0 -0.721956 0.691939 0 -0.450204 0.892926 0 -0.594633 0.803997 0 -0.450204 0.892926 0 -0.967733 0.251978 0 -0.967733 0.251978 0 -0.911228 0.411901 0 -0.911228 0.411901 0 -0.82851 0.559975 0 -0.82851 0.559975 0 -0.967733 -0.251978 -0 -0.996397 -0.0848059 -0 -0.967733 -0.251978 -0 -0.996397 0.0848059 0 -0.996397 0.0848059 0 -0.996397 -0.0848059 -0 -0.82851 -0.559975 -0 -0.721956 -0.691939 -0 -0.721956 -0.691939 -0 -0.911228 -0.411901 -0 -0.82851 -0.559975 -0 -0.911229 -0.411901 -0 -0.292823 -0.956167 -0 -0.292823 -0.956167 -0 -0.450204 -0.892926 -0 -0.450204 -0.892926 -0 -0.594633 -0.803997 -0 -0.594633 -0.803997 -0 0.210679 -0.977555 0 0.0424412 -0.999099 0 0.0424412 -0.999099 0 -0.127018 -0.9919 -0 -0.127018 -0.9919 -0 0.372857 -0.927889 0 0.210679 -0.977555 0 0.372856 -0.927889 0 0.524307 -0.851529 0 0.660675 -0.750672 0 0.524307 -0.851529 0 0.778036 -0.62822 0 0.660675 -0.750672 0 0.778036 -0.62822 0 0.873014 -0.487695 0 0.942877 -0.33314 0 0.873014 -0.487695 0 0.985616 -0.169001 0 0.942877 -0.33314 0 0.985616 -0.169001 0 0.256949 0.194502 -0.94665 0.2468 0.207229 -0.94665 0.251956 0.200928 -0.94665 0.234336 0.221226 -0.94665 0.267824 0.179233 -0.94665 -0.008138 0.322161 -0.94665 -0.0268553 0.321143 -0.94665 -2.81732e-08 0.322264 -0.94665 0.00813779 0.322161 -0.94665 0.0268554 0.321143 -0.94665 -0.246802 0.207226 -0.94665 -0.256951 0.194499 -0.94665 -0.251956 0.200928 -0.94665 -0.267824 0.179233 -0.94665 -0.234336 0.221226 -0.94665 -0.315895 -0.0637538 -0.94665 -0.312272 -0.0796237 -0.94665 -0.314184 -0.0717105 -0.94665 -0.307115 -0.097643 -0.94665 -0.319067 -0.045279 -0.94665 -0.147112 -0.286726 -0.94665 -0.132446 -0.293789 -0.94665 -0.139825 -0.29035 -0.94665 -0.115143 -0.300992 -0.94665 -0.163534 -0.277688 -0.94665 0.147115 -0.286725 -0.94665 0.163534 -0.277688 -0.94665 0.139825 -0.29035 -0.94665 0.132449 -0.293788 -0.94665 0.115143 -0.300992 -0.94665 0.315895 -0.0637514 -0.94665 0.319067 -0.045279 -0.94665 0.314184 -0.0717104 -0.94665 0.312273 -0.0796213 -0.94665 0.307115 -0.097643 -0.94665 0 0 1 0 0 1 0 0 1 0 0 1 0 0 1 0 0 1 0 0 1 0 0 1 0 0 1 0 0 1 0 0 1 0 0 1 0 0 1 0 0 1 0 0 1 0 0 1 0 0 1 0 0 1 0 0 1 0 0 1 0 0 1 0 0 1 0 0 1 0 0 1 0 0 1 0 0 1 0 0 1 0 0 1 0 0 1 0 0 1 0 0 1 0 0 1 0 0 1 0 0 1 0 0 1 0 0 1 0 0 1 0 0 1 0 0 1 0 0 1 0 0 1 0 0 1 0 0 1 0 0 1 0 0 1 0 0 1 0 0 1 0 0 1 0 0 1 0 0 1 0 0 1 0 0 1 0 0 1 0 0 1 0 0 1 -0.272894 0.0550754 0.960466 -0.271416 0.0619489 0.960466 -0.275634 0.0391155 0.960466 -0.26531 0.0843515 0.960466 -0.269765 0.068783 0.960466 -0.213206 -0.179018 0.960466 -0.217659 -0.173577 0.960466 -0.202437 -0.191112 0.960466 -0.231367 -0.154835 0.960466 -0.221973 -0.168025 0.960466 0.00703003 -0.278307 0.960466 2.43382e-08 -0.278396 0.960466 0.0231997 -0.277428 0.960466 -0.0231997 -0.277428 0.960466 -0.00703004 -0.278307 0.960466 0.221972 -0.168026 0.960466 0.217659 -0.173577 0.960466 0.231366 -0.154835 0.960466 0.202437 -0.191112 0.960466 0.213206 -0.179018 0.960466 0.269765 0.068783 0.960466 0.271416 0.061949 0.960466 0.26531 0.0843515 0.960466 0.275634 0.0391154 0.960466 0.272894 0.0550754 0.960466 0.114419 0.253796 0.960466 0.120791 0.250826 0.960466 0.0994692 0.26002 0.960466 0.141274 0.239888 0.960466 0.127087 0.247696 0.960466 -0.127087 0.247696 0.960466 -0.120792 0.250826 0.960466 -0.141274 0.239888 0.960466 -0.0994692 0.26002 0.960466 -0.114419 0.253796 0.960466</float_array>
          <technique_common>
            <accessor count="520" source="#ID16" stride="3">
              <param name="X" type="float"/>
              <param name="Y" type="float"/>
              <param name="Z" type="float"/>
            </accessor>
          </technique_common>
        </source>
        <vertices id="ID17">
          <input semantic="POSITION" source="#ID13"/>
          <input semantic="NORMAL" source="#ID15"/>
        </vertices>
        <triangles count="424" material="ID10">
          <input offset="0" semantic="VERTEX" source="#ID17"/>
          <p>0 2 1 1 3 0 4 6 5 5 7 4 8 10 9 9 11 8 12 14 13 13 15 12 16 18 17 17 19 16 20 22 21 21 23 20 24 26 25 27 25 28 26 28 25 29 30 27 27 28 29 26 24 31 31 33 32 33 31 24 33 34 32 32 34 35 36 38 37 37 39 36 40 42 41 41 43 40 44 46 45 44 45 47 48 50 49 51 49 52 50 52 49 53 54 51 51 52 53 50 48 55 55 57 56 57 55 48 57 58 56 56 58 59 60 62 61 61 63 60 64 66 65 65 67 64 68 70 69 68 69 71 72 74 73 75 73 76 74 76 73 77 78 75 75 76 77 74 72 79 79 81 80 81 79 72 81 82 80 80 82 83 84 86 85 85 87 84 88 90 89 88 91 90 92 94 93 92 93 95 96 98 97 99 97 100 98 100 97 101 102 99 99 100 101 98 96 103 103 105 104 105 103 96 105 106 104 104 106 107 108 110 109 109 111 108 112 114 113 113 115 112 116 118 117 116 117 119 120 122 121 123 121 124 122 124 121 125 126 123 123 124 125 122 120 127 127 129 128 129 127 120 129 130 128 128 130 131 132 134 133 133 135 132 136 138 137 137 139 136 140 142 141 140 141 143 144 146 145 147 145 148 146 148 145 149 150 147 147 148 149 146 144 151 151 153 152 153 151 144 153 154 152 152 154 155 156 158 157 157 159 156 160 162 161 161 163 160 164 166 165 164 165 167 168 170 169 171 169 172 170 172 169 173 174 171 171 172 173 170 168 175 175 177 176 177 175 168 177 178 176 176 178 179 180 182 181 181 183 180 184 186 185 185 187 184 188 190 189 188 189 191 192 194 193 195 197 196 196 197 198 199 200 197 201 203 202 204 198 205 206 208 207 209 211 210 212 214 213 208 206 213 215 217 216 214 219 218 220 222 221 223 225 224 225 227 226 228 230 229 231 233 232 234 235 229 235 237 236 236 239 238 238 241 240 228 243 242 244 243 245 246 248 247 249 248 232 222 250 221 251 252 215 224 252 253 254 215 216 255 222 220 218 219 255 255 220 218 214 212 219 256 258 257 258 260 259 256 262 261 206 212 213 261 263 210 263 261 262 207 194 206 264 192 193 265 209 266 267 264 268 203 269 266 201 271 270 205 268 272 200 270 271 217 274 273 260 275 274 223 227 225 207 193 194 192 264 267 267 268 205 272 204 205 204 196 198 195 199 197 199 270 200 271 201 202 202 203 266 269 265 266 265 211 209 210 263 209 262 256 257 257 258 259 259 260 274 275 273 274 273 216 217 254 251 215 251 253 252 253 223 224 225 226 245 244 242 243 226 244 245 242 230 228 230 234 229 234 276 235 277 236 237 237 235 276 238 239 241 236 277 239 240 241 233 231 232 248 240 233 231 249 247 248 247 250 246 222 246 250 278 280 279 281 283 282 284 285 283 286 288 287 289 291 290 292 294 293 292 296 295 294 292 295 286 297 292 296 292 297 286 287 298 286 298 297 286 300 299 288 286 299 301 300 280 286 280 300 280 278 302 280 302 301 280 304 303 279 280 303 305 304 283 280 283 304 283 285 306 283 306 305 307 309 308 284 283 281 308 310 283 282 283 310 308 309 311 308 311 310 308 313 312 307 308 312 290 314 308 313 308 314 291 315 290 290 315 314 289 290 316 292 317 290 316 290 317 318 319 292 292 319 317 293 320 292 292 320 318 321 323 322 324 326 325 327 329 328 330 332 331 333 335 334 336 338 337 339 341 340 342 344 343 345 347 346 348 350 349 351 353 352 354 356 355 357 359 358 360 362 361 363 365 364 366 368 367 369 371 370 372 374 373 375 377 376 378 377 379 375 381 380 381 375 376 382 383 380 380 381 382 384 383 385 382 385 383 384 387 386 387 384 385 388 389 386 386 387 388 390 389 391 388 391 389 390 393 392 393 390 391 394 325 392 392 393 394 378 379 370 394 324 325 377 378 376 372 371 369 369 370 379 365 373 374 373 371 372 363 364 367 365 374 364 368 366 357 363 367 368 359 362 358 366 359 357 361 352 360 362 360 358 354 353 351 351 352 361 347 355 356 355 353 354 345 346 349 347 356 346 350 348 339 345 349 350 341 344 340 348 341 339 343 334 342 344 342 340 336 335 333 333 334 343 329 337 338 337 335 336 327 328 330 329 338 328 331 332 322 327 330 331 321 326 323 332 321 322 324 323 326 395 397 396 396 397 398 397 395 399 400 402 401 400 403 402 404 402 403 405 407 406 406 407 408 407 405 409 410 412 411 411 412 413 412 410 414 415 417 416 416 417 418 417 415 419 420 422 421 420 423 422 424 422 423 425 427 426 425 428 427 429 427 428 430 432 431 433 434 432 434 435 432 433 432 436 437 439 438 440 432 441 442 436 432 442 432 430 443 444 440 444 432 440 445 444 443 432 446 431 447 444 445 447 448 444 449 431 446 450 444 448 449 446 451 446 452 451 446 453 452 446 455 454 446 454 456 457 458 439 459 461 460 462 460 463 464 462 463 465 462 464 462 467 466 468 462 469 462 466 469 467 462 465 470 471 462 439 471 472 439 462 471 463 460 473 474 439 472 438 439 474 475 457 439 439 437 475 460 461 476 460 476 477 478 455 446 439 458 478 479 480 460 480 459 460 460 444 479 479 444 481 453 446 456 441 432 482 435 482 432 481 444 483 450 483 444 473 460 484 477 484 460 470 462 468 478 446 439 485 487 486 488 489 486 486 489 485 490 492 491 493 494 491 491 494 490 495 497 496 498 499 496 496 499 495 500 502 501 503 504 501 501 504 500 505 507 506 508 509 506 506 509 505 510 512 511 513 514 511 511 514 510 515 517 516 518 519 516 516 519 515</p>
        </triangles>
      </mesh>
    </geometry>
  </library_geometries>

  <library_visual_scenes>
    <visual_scene id="ID1">
      <node id="ID2">
        <node>
          <matrix>1 0 0 0 0 1 0 0 0 0 1 0 0 0 0 1</matrix>
          <instance_node url="#ID3"/>
        </node>
        <node>
          <matrix>1 0 0 0 0 1 0 0 0 0 1 0 0 0 0 1</matrix>
          <instance_node url="#ID11"/>
        </node>
      </node>
    </visual_scene>
  </library_visual_scenes>

  <scene>
    <instance_visual_scene url="#ID1"/>
  </scene>

  <library_nodes>
    <node id="ID3">
      <instance_geometry url="#ID4">
        <bind_material>
          <technique_common>
            <instance_material symbol="ID10" target="#ID10"/>
          </technique_common>
        </bind_material>
      </instance_geometry>
    </node>
    <node id="ID11">
      <instance_geometry url="#ID12">
        <bind_material>
          <technique_common>
            <instance_material symbol="ID10" target="#ID10"/>
          </technique_common>
        </bind_material>
      </instance_geometry>
    </node>
  </library_nodes>

</COLLADA>
